<svg width="106" height="107" viewBox="0 0 106 107" fill="none" xmlns="http://www.w3.org/2000/svg">
<g id="planet1">
<g id="g17374">
<g id="g17376">
<g id="g17382">
<g id="g17410">
<g id="g17412">
<path id="path17422" d="M5.32688 30.046C-5.69579 52.618 0.689538 80.5274 21.6882 95.8554C45.2575 113.059 78.3082 107.898 95.5136 84.3287C107.447 67.9794 108.62 47.0674 100.35 30.046H5.32688Z" fill="url(#paint0_radial)"/>
</g>
</g>
</g>
</g>
</g>
<g id="planet1_2">
<g id="g17448">
<g id="g17454">
<g id="g17486">
<g id="g17484">
<g id="g17482">
<g id="g17480">
<g id="g17478">
<g id="g17476">
<path id="path17474" d="M75.9987 36.4474C75.7441 35.8461 75.4201 35.2247 74.8494 34.9114C73.7308 34.2967 72.3588 35.1781 71.5934 36.1981C69.7774 38.6194 69.4814 41.8394 69.5241 44.8661C69.5654 47.8914 69.8721 50.9874 69.0214 53.8914C68.1707 56.7954 65.7788 59.5248 62.7534 59.6168C59.5801 59.7141 56.9974 57.0127 53.8841 56.3887C53.4668 56.3047 53.0201 56.2607 52.6241 56.4194C51.6614 56.8034 51.5014 58.0714 51.4694 59.1074C51.2867 64.9994 50.3227 71.0167 47.3947 76.1327C46.3521 77.9554 45.0214 79.6434 43.4801 81.0888C51.5921 83.0261 60.0814 82.4167 67.7814 79.4581C67.4734 79.0967 67.1881 78.7141 66.9548 78.2914C64.4894 73.7874 67.4867 68.3727 70.1934 64.0101C72.7694 59.8567 75.1774 55.5328 76.4814 50.8234C77.7841 46.1141 77.9107 40.9434 75.9987 36.4474" fill="url(#paint1_radial)"/>
</g>
</g>
</g>
</g>
</g>
</g>
</g>
<g id="g17488">
<g id="g17520">
<g id="g17518">
<g id="g17516">
<g id="g17514">
<g id="g17512">
<g id="g17510">
<path id="path17508" d="M81.0281 11.1967C79.4561 13.4741 78.0147 15.7834 77.8627 18.4914C77.6107 22.9954 81.1521 26.9034 85.1147 29.0607C86.1507 29.626 87.2947 30.1701 87.8721 31.2007C88.2254 31.8327 88.3187 32.5754 88.3761 33.2981C88.9147 40.1247 86.8907 46.8674 86.1654 53.6767C85.8481 56.6554 86.0601 60.2061 88.4174 61.9474C98.1574 45.3967 95.0254 24.2367 81.0281 11.1967Z" fill="url(#paint2_radial)"/>
</g>
</g>
</g>
</g>
</g>
</g>
</g>
<g id="g17522">
<g id="g17554">
<g id="g17552">
<g id="g17550">
<g id="g17548">
<g id="g17546">
<g id="g17544">
<path id="path17542" d="M28.8428 74.3194C29.0348 74.4594 29.2321 74.5874 29.4268 74.7234C30.2255 74.4794 30.9868 74.1207 31.6748 73.6407C33.2388 72.5474 34.5015 70.8901 36.3521 70.4247C37.3628 70.1701 38.4388 70.3087 39.4508 70.0647C41.9708 69.4567 43.3935 66.5874 43.2681 63.998C43.1428 61.4087 41.8615 59.0381 40.6495 56.7461C39.4375 54.4554 38.2348 52.0207 38.2868 49.4301C38.3295 47.2861 39.2841 45.1754 40.8668 43.7274C42.2681 42.4447 44.1655 41.6194 45.0788 39.9541C46.2681 37.7847 45.2188 34.902 43.2722 33.3767C41.3242 31.85 38.7348 31.4234 36.2614 31.3727C35.0414 31.3474 33.7961 31.3994 32.6255 31.0514C29.4655 30.1127 27.8201 26.6114 27.2508 23.3647C26.6815 20.1167 26.7681 16.678 25.3428 13.7047C25.0455 13.086 24.6561 12.4954 24.1655 12.0221C22.6361 13.5407 21.2028 15.1941 19.8921 16.9901C6.53215 35.2927 10.5401 60.9594 28.8428 74.3194" fill="url(#paint3_radial)"/>
</g>
</g>
</g>
</g>
</g>
</g>
</g>
<g id="g17556">
<g id="g17588">
<g id="g17586">
<g id="g17584">
<g id="g17582">
<g id="g17580">
<g id="g17578">
<path id="path17576" d="M38.1308 9.34866C40.5574 10.2033 43.1881 10.2233 45.7161 10.6993C48.2454 11.1753 50.8814 12.2833 52.1174 14.5393C53.6294 17.302 52.5574 20.682 51.9294 23.7687C51.3654 26.5393 51.1921 29.39 51.4161 32.21C51.6655 35.334 52.6961 38.8127 55.5054 40.2034C58.4441 41.658 62.0161 40.158 64.5641 38.0927C66.1681 36.7927 67.6494 35.1447 68.0254 33.114C68.7388 29.266 65.3054 25.5487 66.0094 21.7007C66.5734 18.6087 69.5348 16.6607 71.5868 14.2793C73.4681 12.0953 74.5881 9.39401 75.0241 6.55268C61.9588 -1.76332 45.7361 -1.79265 32.8881 5.43801C34.2241 7.20601 36.0361 8.60999 38.1308 9.34866Z" fill="url(#paint4_radial)"/>
</g>
</g>
</g>
</g>
</g>
</g>
</g>
<g id="g17590">
<g id="g17622">
<g id="g17620" opacity="0.25">
<g id="g17618" opacity="0.25">
<g id="g17616" opacity="0.25">
<g id="g17614" opacity="0.25">
<g id="g17612" opacity="0.25">
<path id="path17610" opacity="0.25" d="M44.0735 1.06607C47.1121 2.3034 50.0521 3.92071 52.8215 5.94205C71.1241 19.302 75.1321 44.9687 61.7721 63.2714C55.7281 71.5514 47.1641 76.894 37.9041 79.0394C54.9455 85.9754 75.1468 80.746 86.4854 65.2127C99.8441 46.9101 95.8375 21.242 77.5348 7.88337C67.5121 0.567372 55.2828 -1.52993 44.0735 1.06607" fill="url(#paint5_radial)"/>
</g>
</g>
</g>
</g>
</g>
</g>
</g>
<g id="g17624">
<g id="g17656">
<g id="g17654" opacity="0.339996">
<g id="g17652" opacity="0.339996">
<g id="g17650" opacity="0.339996">
<g id="g17648" opacity="0.339996">
<g id="g17646" opacity="0.339996">
<path id="path17644" opacity="0.339996" d="M60.2708 2.21806C64.2628 3.42872 68.1241 5.31406 71.6854 7.91406C88.7161 20.3447 92.4454 44.2301 80.0134 61.2607C71.3161 73.1767 57.0161 78.5687 43.3761 76.4821C58.4707 81.0501 75.4468 75.9101 85.2708 62.4501C97.7028 45.4181 93.9734 21.534 76.9428 9.10205C71.8361 5.37538 66.1134 3.11406 60.2708 2.21806" fill="url(#paint6_radial)"/>
</g>
</g>
</g>
</g>
</g>
</g>
</g>
<g id="g17658">
<g id="g17690">
<g id="g17688" opacity="0.449997">
<g id="g17686" opacity="0.449997">
<g id="g17684" opacity="0.449997">
<g id="g17682" opacity="0.449997">
<g id="g17680" opacity="0.449997">
<path id="path17678" opacity="0.449997" d="M33.2855 74.4074C14.9828 61.0474 10.9748 35.3807 24.3348 17.0781C32.0775 6.47006 43.9548 0.675449 56.1361 0.270116C42.4561 -0.755217 28.5748 5.09409 19.8921 16.9901C6.53215 35.2928 10.5401 60.9594 28.8428 74.3194C36.5375 79.9367 45.5335 82.4714 54.3695 82.1767C47.0015 81.6247 39.6921 79.0847 33.2855 74.4074Z" fill="url(#paint7_radial)"/>
</g>
</g>
</g>
</g>
</g>
</g>
</g>
<g id="g17692">
<g id="g17724">
<g id="g17722">
<g id="g17720">
<g id="g17718">
<g id="g17716">
<g id="g17714">
<path id="path17712" d="M39.0841 74.2941C34.4294 72.4114 29.6027 66.514 27.3187 63.6327C21.9361 56.8421 18.7041 48.5527 18.6148 39.8461C18.3841 17.0781 38.7934 5.95537 46.9988 5.0327C55.2041 4.11137 56.6361 13.2834 50.5601 21.3367C44.4841 29.39 38.5014 37.3141 39.2414 44.9901C39.9828 52.6661 50.7401 59.9247 48.4081 67.7367C47.6361 70.3234 46.1681 73.8034 43.2988 74.6727C41.9654 75.0767 40.5334 74.8794 39.0841 74.2941" fill="url(#paint8_radial)"/>
</g>
</g>
</g>
</g>
</g>
</g>
</g>
<g id="g17726">
<g id="g17758">
<g id="g17756" opacity="0.449997">
<g id="g17754" opacity="0.449997">
<g id="g17752" opacity="0.449997">
<g id="g17750" opacity="0.449997">
<g id="g17748" opacity="0.449997">
<path id="path17746" opacity="0.449997" d="M24.4254 41.0301C27.3148 40.3887 30.5801 44.0274 31.7188 49.1581C32.8574 54.2874 31.4375 58.966 28.5481 59.6074C25.6588 60.2487 22.3948 56.6101 21.2561 51.4794C20.1174 46.3501 21.5361 41.6714 24.4254 41.0301" fill="url(#paint9_radial)"/>
</g>
</g>
</g>
</g>
</g>
</g>
</g>
<g id="g17760">
<g id="g17792">
<g id="g17790" opacity="0.449997">
<g id="g17788" opacity="0.449997">
<g id="g17786" opacity="0.449997">
<g id="g17784" opacity="0.449997">
<g id="g17782" opacity="0.449997">
<path id="path17780" opacity="0.449997" d="M25.2361 26.9887C26.9588 27.2394 27.9948 29.9208 27.5495 32.9794C27.1055 36.0381 25.3481 38.3154 23.6255 38.0648C21.9028 37.8141 20.8668 35.1314 21.3122 32.0727C21.7562 29.0141 23.5135 26.7381 25.2361 26.9887Z" fill="url(#paint10_radial)"/>
</g>
</g>
</g>
</g>
</g>
</g>
</g>
</g>
</g>
</g>
<defs>
<radialGradient id="paint0_radial" cx="0" cy="0" r="1" gradientUnits="userSpaceOnUse" gradientTransform="translate(52.8373 52.7354) rotate(43.3317) scale(52.4485)">
<stop stop-color="#461980"/>
<stop offset="0.799087" stop-color="#461980"/>
<stop offset="1" stop-color="#19B2DB"/>
</radialGradient>
<radialGradient id="paint1_radial" cx="0" cy="0" r="1" gradientUnits="userSpaceOnUse" gradientTransform="translate(40.4404 0.405267) rotate(62.7603) scale(275.827)">
<stop stop-color="#F4A400"/>
<stop offset="0.0518519" stop-color="#F4A400"/>
<stop offset="1" stop-color="#ED29B9"/>
</radialGradient>
<radialGradient id="paint2_radial" cx="0" cy="0" r="1" gradientUnits="userSpaceOnUse" gradientTransform="translate(40.4405 0.405284) rotate(62.7603) scale(275.827 275.827)">
<stop stop-color="#F4A400"/>
<stop offset="0.0518519" stop-color="#F4A400"/>
<stop offset="1" stop-color="#ED29B9"/>
</radialGradient>
<radialGradient id="paint3_radial" cx="0" cy="0" r="1" gradientUnits="userSpaceOnUse" gradientTransform="translate(40.4405 0.405261) rotate(62.7603) scale(275.827)">
<stop stop-color="#F4A400"/>
<stop offset="0.0518519" stop-color="#F4A400"/>
<stop offset="1" stop-color="#ED29B9"/>
</radialGradient>
<radialGradient id="paint4_radial" cx="0" cy="0" r="1" gradientUnits="userSpaceOnUse" gradientTransform="translate(40.4405 0.40523) rotate(62.7603) scale(275.827)">
<stop stop-color="#F4A400"/>
<stop offset="0.0518519" stop-color="#F4A400"/>
<stop offset="1" stop-color="#ED29B9"/>
</radialGradient>
<radialGradient id="paint5_radial" cx="0" cy="0" r="1" gradientUnits="userSpaceOnUse" gradientTransform="translate(26.0251 28.0856) rotate(8.25096) scale(109.133)">
<stop stop-color="#19B2DB"/>
<stop offset="0.0592593" stop-color="#19B2DB"/>
<stop offset="1" stop-color="#461980"/>
</radialGradient>
<radialGradient id="paint6_radial" cx="0" cy="0" r="1" gradientUnits="userSpaceOnUse" gradientTransform="translate(38.3616 34.005) rotate(8.25095) scale(89.4505)">
<stop stop-color="#19B2DB"/>
<stop offset="0.0592593" stop-color="#19B2DB"/>
<stop offset="1" stop-color="#461980"/>
</radialGradient>
<radialGradient id="paint7_radial" cx="0" cy="0" r="1" gradientUnits="userSpaceOnUse" gradientTransform="translate(44.8718 39.045) rotate(-143.701) scale(35.6325)">
<stop stop-color="#19B2DB"/>
<stop offset="0.0592593" stop-color="#19B2DB"/>
<stop offset="1" stop-color="#461980"/>
</radialGradient>
<radialGradient id="paint8_radial" cx="0" cy="0" r="1" gradientUnits="userSpaceOnUse" gradientTransform="translate(20.0147 27.8863) rotate(8.25096) scale(77.0219)">
<stop stop-color="#19B2DB"/>
<stop offset="0.0592593" stop-color="#19B2DB"/>
<stop offset="1" stop-color="#461980"/>
</radialGradient>
<radialGradient id="paint9_radial" cx="0" cy="0" r="1" gradientUnits="userSpaceOnUse" gradientTransform="translate(26.4873 50.3188) rotate(-143.701) scale(7.72274)">
<stop stop-color="#19B2DB"/>
<stop offset="0.0592593" stop-color="#19B2DB"/>
<stop offset="1" stop-color="#461980"/>
</radialGradient>
<radialGradient id="paint10_radial" cx="0" cy="0" r="1" gradientUnits="userSpaceOnUse" gradientTransform="translate(24.4308 32.5263) rotate(-143.701) scale(4.54242)">
<stop stop-color="#19B2DB"/>
<stop offset="0.0592593" stop-color="#19B2DB"/>
<stop offset="1" stop-color="#461980"/>
</radialGradient>
</defs>
</svg>
