<svg width="43" height="43" viewBox="0 0 43 43" fill="none" xmlns="http://www.w3.org/2000/svg">
<g id="planet2">
<g id="g17372">
<g id="g17370">
<g id="g17192">
<g id="g17190">
<g id="g17188">
<g id="g17186">
<g id="g17184">
<g id="g17182">
<g id="g17180">
<g id="g17178">
<path id="path17176" d="M21.1254 42.1254C9.49343 42.1601 0.0347697 32.7588 0.000103031 21.1254C-0.035897 9.49343 9.36676 0.0347658 20.9988 9.91499e-05C32.6321 -0.0345675 42.0908 9.36676 42.1254 20.9988C42.1601 32.6321 32.7588 42.0908 21.1254 42.1254" fill="url(#paint0_radial)"/>
</g>
</g>
</g>
</g>
</g>
</g>
</g>
</g>
<g id="g17202">
<g id="g17200">
<g id="g17198">
<g id="g17196">
<path id="path17194" d="M21.1161 39.1001C11.1548 39.1294 3.05481 31.0787 3.02548 21.1174C2.99481 11.1547 11.0468 3.05475 21.0081 3.02542C30.9695 2.99608 39.0695 11.0467 39.1001 21.0081C39.1295 30.9694 31.0788 39.0694 21.1161 39.1001" fill="url(#paint1_radial)"/>
</g>
</g>
</g>
</g>
<g id="g17220">
<g id="g17218">
<g id="g17216">
<g id="g17214">
<g id="g17212">
<g id="g17210">
<g id="g17208">
<path id="path17206" d="M21.1161 39.1001C11.1548 39.1294 3.05481 31.0787 3.02548 21.1174C2.99481 11.1547 11.0468 3.05475 21.0081 3.02542C30.9695 2.99608 39.0695 11.0467 39.1001 21.0081C39.1295 30.9694 31.0788 39.0694 21.1161 39.1001" fill="url(#paint2_radial)"/>
</g>
</g>
</g>
</g>
</g>
</g>
</g>
<g id="g17230">
<g id="g17228">
<g id="g17226">
<g id="g17224">
<path id="path17222" d="M14.1561 28.7161C14.4028 28.8628 14.6801 28.9988 14.9641 28.9614C15.5201 28.8881 15.7761 28.2188 15.7828 27.6588C15.7961 26.3281 15.0628 25.1094 14.2602 24.0481C13.4575 22.9881 12.5441 21.9708 12.0895 20.7201C11.6348 19.4694 11.7721 17.8801 12.8201 17.0601C13.9188 16.2001 15.5361 16.4855 16.8028 15.8961C16.9721 15.8175 17.1415 15.7161 17.2401 15.5575C17.4815 15.1708 17.2082 14.6788 16.9508 14.3041C15.4815 12.1695 14.2575 9.78545 13.9628 7.21078C13.8588 6.29478 13.8908 5.34946 14.0601 4.43612C10.6815 5.86146 7.83215 8.28679 5.87482 11.3388C6.07748 11.3868 6.2788 11.4481 6.4708 11.5374C8.51614 12.4908 8.86414 15.1894 9.04014 17.4401C9.20814 19.5814 9.48012 21.7401 10.2441 23.7481C11.0081 25.7561 12.3095 27.6214 14.1561 28.7161" fill="url(#paint3_radial)"/>
</g>
</g>
</g>
</g>
<g id="g17240">
<g id="g17238">
<g id="g17236">
<g id="g17234">
<path id="path17232" d="M18.9454 38.9721C18.9108 37.7561 18.8201 36.5627 18.1694 35.5641C17.0868 33.9014 14.8148 33.4388 12.8494 33.7054C12.3348 33.7761 11.7881 33.8801 11.3161 33.6654C11.0255 33.5334 10.8001 33.2947 10.5908 33.0534C8.62278 30.7747 7.58547 27.8601 6.0708 25.2574C5.40813 24.1201 4.40945 22.9174 3.12012 22.9134C3.97612 31.3121 10.5934 37.9947 18.9454 38.9721" fill="url(#paint4_radial)"/>
</g>
</g>
</g>
</g>
<g id="g17250">
<g id="g17248">
<g id="g17246">
<g id="g17244">
<path id="path17242" d="M21.0082 3.0254C20.9042 3.0254 20.8001 3.03209 20.6961 3.03476C20.4775 3.32943 20.3001 3.6534 20.1815 4.00274C19.9121 4.7974 19.8948 5.71341 19.3615 6.36008C19.0695 6.71341 18.6521 6.94406 18.3575 7.29473C17.6215 8.1654 17.8655 9.5521 18.5828 10.4374C19.3015 11.3214 20.3722 11.8281 21.3988 12.3241C22.4242 12.8214 23.4842 13.3707 24.1402 14.3014C24.6828 15.0734 24.8935 16.0694 24.7095 16.9934C24.5468 17.8121 24.0895 18.5987 24.1988 19.4267C24.3428 20.5054 25.4641 21.2534 26.5508 21.2868C27.6388 21.3214 28.6668 20.7987 29.5561 20.1734C29.9961 19.8641 30.4228 19.5214 30.9281 19.3401C32.2921 18.8507 33.7868 19.6627 34.8335 20.6654C35.8801 21.6667 36.7441 22.9081 38.0228 23.5907C38.2895 23.7334 38.5815 23.8414 38.8788 23.8801C39.0255 22.9454 39.1028 21.9854 39.1002 21.0081C39.0695 11.0467 30.9695 2.99607 21.0082 3.0254" fill="url(#paint5_radial)"/>
</g>
</g>
</g>
</g>
<g id="g17260">
<g id="g17258">
<g id="g17256">
<g id="g17254">
<path id="path17252" d="M34.6268 28.4627C33.5441 28.7907 32.6068 29.4694 31.5868 29.9588C30.5668 30.4468 29.3441 30.7414 28.3201 30.2628C27.0641 29.6774 26.5655 28.2014 25.9841 26.9441C25.4628 25.8161 24.7828 24.7614 23.9695 23.8201C23.0681 22.7774 21.7975 21.8134 20.4401 22.0521C19.0201 22.3014 18.1441 23.7627 17.7801 25.1574C17.5508 26.0361 17.4548 27.0054 17.8495 27.8227C18.5975 29.3707 20.7815 29.7947 21.5348 31.3414C22.1388 32.5841 21.5961 34.0441 21.4895 35.4228C21.3908 36.6867 21.6975 37.9347 22.2828 39.0547C29.0761 38.6001 34.8308 34.3894 37.5015 28.4841C36.5681 28.2054 35.5601 28.1787 34.6268 28.4627" fill="url(#paint6_radial)"/>
</g>
</g>
</g>
</g>
<g id="g17278">
<g id="g17276">
<g id="g17274" opacity="0.25">
<g id="g17272" opacity="0.25">
<g id="g17270" opacity="0.25">
<g id="g17268" opacity="0.25">
<g id="g17266" opacity="0.25">
<path id="path17264" opacity="0.25" d="M34.7881 32.7214C33.3895 33.0747 31.9281 33.2668 30.4201 33.2708C20.4588 33.3014 12.3588 25.2494 12.3281 15.2881C12.3148 10.7814 13.9588 6.66006 16.6815 3.48939C8.83879 5.46806 3.0428 12.5774 3.06814 21.0321C3.09747 30.9934 11.1975 39.0454 21.1588 39.0147C26.6148 38.9987 31.4921 36.5587 34.7881 32.7214" fill="url(#paint7_radial)"/>
</g>
</g>
</g>
</g>
</g>
</g>
</g>
<g id="g17296">
<g id="g17294">
<g id="g17292" opacity="0.339996">
<g id="g17290" opacity="0.339996">
<g id="g17288" opacity="0.339996">
<g id="g17286" opacity="0.339996">
<g id="g17284" opacity="0.339996">
<path id="path17282" opacity="0.339996" d="M28.6588 35.9654C26.9294 36.5761 25.0708 36.9134 23.1321 36.9188C13.8628 36.9468 6.32544 29.4548 6.29744 20.1854C6.27877 13.7001 9.94145 8.0681 15.3175 5.25744C8.78012 7.56677 4.10411 13.8068 4.12544 21.1321C4.15344 30.4014 11.6908 37.8934 20.9601 37.8654C23.7401 37.8574 26.3561 37.1694 28.6588 35.9654" fill="url(#paint8_radial)"/>
</g>
</g>
</g>
</g>
</g>
</g>
</g>
<g id="g17314">
<g id="g17312">
<g id="g17310" opacity="0.449997">
<g id="g17308" opacity="0.449997">
<g id="g17306" opacity="0.449997">
<g id="g17304" opacity="0.449997">
<g id="g17302" opacity="0.449997">
<path id="path17300" opacity="0.449997" d="M19.4107 4.15074C29.3734 4.12007 37.4721 12.1721 37.5027 22.1334C37.5201 27.9067 34.8201 33.0508 30.6094 36.3654C35.7228 33.1681 39.1188 27.4827 39.1001 21.0081C39.0694 11.0467 30.9695 2.99608 21.0081 3.02541C16.8201 3.03741 12.9734 4.48144 9.91876 6.88544C12.6734 5.16277 15.9241 4.16141 19.4107 4.15074Z" fill="url(#paint9_radial)"/>
</g>
</g>
</g>
</g>
</g>
</g>
</g>
<g id="g17332">
<g id="g17330">
<g id="g17328">
<g id="g17326">
<g id="g17324">
<g id="g17322">
<g id="g17320">
<path id="path17318" d="M17.3854 5.70009C19.5254 5.15609 22.7708 5.98941 24.3295 6.41607C28.0041 7.42007 31.3068 9.51609 33.6041 12.5788C39.6108 20.5841 35.2748 29.8374 32.6068 32.3001C29.9401 34.7614 27.0454 31.8841 27.1028 27.4494C27.1588 23.0147 27.2161 18.6507 24.9561 16.1241C22.6961 13.5961 16.9961 13.8241 15.7895 10.4494C15.3895 9.33206 15.0041 7.7174 15.7948 6.66274C16.1614 6.17207 16.7201 5.86942 17.3854 5.70009" fill="url(#paint10_radial)"/>
</g>
</g>
</g>
</g>
</g>
</g>
</g>
<g id="g17350">
<g id="g17348">
<g id="g17346" opacity="0.449997">
<g id="g17344" opacity="0.449997">
<g id="g17342" opacity="0.449997">
<g id="g17340" opacity="0.449997">
<g id="g17338" opacity="0.449997">
<path id="path17336" opacity="0.449997" d="M31.2361 13.6708C30.3801 14.6494 28.2761 14.2108 26.5375 12.6894C24.7988 11.1681 24.0841 9.14145 24.9415 8.16145C25.7975 7.18279 27.9015 7.62278 29.6402 9.14278C31.3788 10.6641 32.0935 12.6921 31.2361 13.6708Z" fill="url(#paint11_radial)"/>
</g>
</g>
</g>
</g>
</g>
</g>
</g>
<g id="g17368">
<g id="g17366">
<g id="g17364" opacity="0.449997">
<g id="g17362" opacity="0.449997">
<g id="g17360" opacity="0.449997">
<g id="g17358" opacity="0.449997">
<g id="g17356" opacity="0.449997">
<path id="path17354" opacity="0.449997" d="M34.6041 18.8561C33.9281 19.2161 32.8628 18.5361 32.2255 17.3361C31.5868 16.1361 31.6161 14.8734 32.2921 14.5134C32.9681 14.1534 34.0334 14.8348 34.6708 16.0335C35.3094 17.2335 35.2801 18.4975 34.6041 18.8561Z" fill="url(#paint12_radial)"/>
</g>
</g>
</g>
</g>
</g>
</g>
</g>
</g>
</g>
</g>
<defs>
<radialGradient id="paint0_radial" cx="0" cy="0" r="1" gradientUnits="userSpaceOnUse" gradientTransform="translate(21.1672 21.0626) rotate(43.8656) scale(20.7216)">
<stop stop-color="#F4A400"/>
<stop offset="0.0518519" stop-color="#F4A400"/>
<stop offset="0.809505" stop-color="#F4A400"/>
<stop offset="1" stop-color="#ED29B9"/>
</radialGradient>
<radialGradient id="paint1_radial" cx="0" cy="0" r="1" gradientUnits="userSpaceOnUse" gradientTransform="translate(38.4147 18.2137) rotate(151.952) scale(52.8953)">
<stop stop-color="#F4A400"/>
<stop offset="0.0518519" stop-color="#F4A400"/>
<stop offset="1" stop-color="#ED29B9"/>
</radialGradient>
<radialGradient id="paint2_radial" cx="0" cy="0" r="1" gradientUnits="userSpaceOnUse" gradientTransform="translate(38.4147 18.2137) rotate(151.952) scale(52.8953)">
<stop stop-color="#F4A400"/>
<stop offset="0.0518519" stop-color="#F4A400"/>
<stop offset="1" stop-color="#ED29B9"/>
</radialGradient>
<radialGradient id="paint3_radial" cx="0" cy="0" r="1" gradientUnits="userSpaceOnUse" gradientTransform="translate(33.4104 13.8229) rotate(144.649) scale(27.812)">
<stop stop-color="#FF0077"/>
<stop offset="0.384182" stop-color="#FF0077"/>
<stop offset="0.898496" stop-color="#8244B0"/>
<stop offset="0.942285" stop-color="#8244B0"/>
<stop offset="1" stop-color="#8244B0"/>
</radialGradient>
<radialGradient id="paint4_radial" cx="0" cy="0" r="1" gradientUnits="userSpaceOnUse" gradientTransform="translate(33.4103 13.8229) rotate(144.649) scale(27.8335)">
<stop stop-color="#FF0077"/>
<stop offset="0.384182" stop-color="#FF0077"/>
<stop offset="0.898496" stop-color="#8244B0"/>
<stop offset="0.942285" stop-color="#8244B0"/>
<stop offset="1" stop-color="#8244B0"/>
</radialGradient>
<radialGradient id="paint5_radial" cx="0" cy="0" r="1" gradientUnits="userSpaceOnUse" gradientTransform="translate(33.4104 13.8229) rotate(144.649) scale(27.812)">
<stop stop-color="#FF0077"/>
<stop offset="0.384182" stop-color="#FF0077"/>
<stop offset="0.898496" stop-color="#8244B0"/>
<stop offset="0.942285" stop-color="#8244B0"/>
<stop offset="1" stop-color="#8244B0"/>
</radialGradient>
<radialGradient id="paint6_radial" cx="0" cy="0" r="1" gradientUnits="userSpaceOnUse" gradientTransform="translate(33.4104 13.8229) rotate(144.649) scale(27.812)">
<stop stop-color="#FF0077"/>
<stop offset="0.384182" stop-color="#FF0077"/>
<stop offset="0.898496" stop-color="#8244B0"/>
<stop offset="0.942285" stop-color="#8244B0"/>
<stop offset="1" stop-color="#8244B0"/>
</radialGradient>
<radialGradient id="paint7_radial" cx="0" cy="0" r="1" gradientUnits="userSpaceOnUse" gradientTransform="translate(34.1514 18.4516) rotate(151.952) scale(47.977)">
<stop stop-color="#F4A400"/>
<stop offset="0.0518519" stop-color="#F4A400"/>
<stop offset="1" stop-color="#ED29B9"/>
</radialGradient>
<radialGradient id="paint8_radial" cx="0" cy="0" r="1" gradientUnits="userSpaceOnUse" gradientTransform="translate(28.1489 19.0021) rotate(151.952) scale(39.3241)">
<stop stop-color="#F4A400"/>
<stop offset="0.0518519" stop-color="#F4A400"/>
<stop offset="1" stop-color="#ED29B9"/>
</radialGradient>
<radialGradient id="paint9_radial" cx="0" cy="0" r="1" gradientUnits="userSpaceOnUse" gradientTransform="translate(24.5091 19.6952) scale(15.6648)">
<stop stop-color="#F4A400"/>
<stop offset="0.0518519" stop-color="#F4A400"/>
<stop offset="1" stop-color="#ED29B9"/>
</radialGradient>
<radialGradient id="paint10_radial" cx="0" cy="0" r="1" gradientUnits="userSpaceOnUse" gradientTransform="translate(36.2202 17.1797) rotate(151.952) scale(33.8603)">
<stop stop-color="#F4A400"/>
<stop offset="0.0518519" stop-color="#F4A400"/>
<stop offset="1" stop-color="#ED29B9"/>
</radialGradient>
<radialGradient id="paint11_radial" cx="0" cy="0" r="1" gradientUnits="userSpaceOnUse" gradientTransform="translate(28.0889 10.9162) scale(3.39507)">
<stop stop-color="#F4A400"/>
<stop offset="0.0518519" stop-color="#F4A400"/>
<stop offset="1" stop-color="#ED29B9"/>
</radialGradient>
<radialGradient id="paint12_radial" cx="0" cy="0" r="1" gradientUnits="userSpaceOnUse" gradientTransform="translate(33.448 16.685) scale(1.99693)">
<stop stop-color="#F4A400"/>
<stop offset="0.0518519" stop-color="#F4A400"/>
<stop offset="1" stop-color="#ED29B9"/>
</radialGradient>
</defs>
</svg>
