<svg width="91" height="58" viewBox="0 0 91 58" fill="none" xmlns="http://www.w3.org/2000/svg">
<g id="planet7">
<g id="g19214">
<g id="g19216">
<g id="g19222">
<g id="g19224">
<path id="path19238" d="M28.7673 12.9043C19.962 22.5176 20.618 37.4483 30.23 46.2523C39.8433 55.059 54.7753 54.4016 63.5793 44.7883C72.386 35.1763 71.7287 20.2456 62.1153 11.4403C57.5847 7.29098 51.874 5.24163 46.1793 5.24296C39.7913 5.24296 33.422 7.82164 28.7673 12.9043" fill="url(#paint0_radial)"/>
</g>
</g>
</g>
</g>
<g id="g19240">
<g id="g19242">
<g id="g19248">
<g id="g19262">
<g id="g19260" opacity="0.449997">
<g id="g19258" opacity="0.449997">
<path id="path19256" opacity="0.449997" d="M28.7681 14.54C37.5734 4.92667 52.504 4.27067 62.1174 13.076C66.968 17.52 69.5347 23.5227 69.7587 29.616C69.9734 22.9733 67.4014 16.2813 62.116 11.44C52.5027 2.636 37.5721 3.29067 28.7667 12.904C24.4054 17.6653 22.3694 23.732 22.5894 29.7133C22.7641 24.2733 24.8041 18.868 28.7681 14.54Z" fill="#F4A400"/>
</g>
</g>
</g>
</g>
<g id="g19264">
<g id="g19278">
<g id="g19276" opacity="0.449997">
<g id="g19274" opacity="0.449997">
<path id="path19272" opacity="0.449997" d="M27.2954 28.8486C35.102 20.326 48.3394 19.7446 56.862 27.5513C61.026 31.3646 63.29 36.4766 63.61 41.7006C69.1127 33.2753 67.8754 21.866 60.2114 14.846C51.6874 7.04064 38.45 7.62197 30.6447 16.1446C26.6527 20.5033 24.8594 26.094 25.194 31.5606C25.8114 30.6166 26.5087 29.7073 27.2954 28.8486Z" fill="#F4A400"/>
</g>
</g>
</g>
</g>
<g id="g19280">
<g id="g19316">
<g id="g19314" opacity="0.5">
<g id="g19312" opacity="0.5">
<g id="g19310" opacity="0.5">
<g id="g19308" opacity="0.5">
<g id="g19306" opacity="0.5">
<path id="path19304" opacity="0.5" d="M69.4755 25.1122C68.5688 27.0602 67.3542 28.9055 65.8262 30.5735C57.7928 39.3442 44.1715 39.9415 35.4008 31.9095C29.9808 26.9442 27.6862 19.8469 28.6168 13.0775C19.9742 22.6962 20.6742 37.5002 30.2315 46.2536C39.8448 55.0576 54.7755 54.4029 63.5808 44.7895C68.6422 39.2629 70.5702 31.9802 69.4755 25.1122" fill="url(#paint1_radial)"/>
</g>
</g>
</g>
</g>
</g>
</g>
</g>
<g id="g19318">
<g id="g19354">
<g id="g19352" opacity="0.5">
<g id="g19350" opacity="0.5">
<g id="g19348" opacity="0.5">
<g id="g19346" opacity="0.5">
<g id="g19344" opacity="0.5">
<path id="path19342" opacity="0.5" d="M67.5542 34.7509C66.5955 36.9895 65.2542 39.1082 63.5155 41.0069C55.2142 50.0695 41.1368 50.6882 32.0728 42.3869C25.7408 36.5869 23.5395 27.9709 25.6155 20.2122C22.0048 28.6576 23.8875 38.8109 31.0448 45.3655C40.1075 53.6669 54.1848 53.0495 62.4862 43.9855C64.9808 41.2629 66.6595 38.0855 67.5542 34.7509" fill="url(#paint2_radial)"/>
</g>
</g>
</g>
</g>
</g>
</g>
</g>
<g id="g19356">
<g id="g19392">
<g id="g19390" opacity="0.5">
<g id="g19388" opacity="0.5">
<g id="g19386" opacity="0.5">
<g id="g19384" opacity="0.5">
<g id="g19382" opacity="0.5">
<path id="path19380" opacity="0.5" d="M54.3035 21.0882C53.5502 19.5362 52.0342 18.7176 50.9182 19.2589C49.8022 19.8016 49.5075 21.4989 50.2622 23.0509C51.0155 24.6029 52.5315 25.4215 53.6475 24.8802C54.7635 24.3375 55.0582 22.6402 54.3035 21.0882ZM64.9675 31.1776C62.5409 32.3562 59.2435 30.5762 57.6049 27.2016C55.9649 23.8256 56.6049 20.1335 59.0315 18.9549C61.4595 17.7762 64.7569 19.5562 66.3955 22.9309C68.0355 26.3069 67.3955 29.9989 64.9675 31.1776" fill="url(#paint3_radial)"/>
</g>
</g>
</g>
</g>
</g>
</g>
</g>
<g id="g19394">
<g id="g19430">
<g id="g19428" opacity="0.5">
<g id="g19426" opacity="0.5">
<g id="g19424" opacity="0.5">
<g id="g19422" opacity="0.5">
<g id="g19420" opacity="0.5">
<path id="path19418" opacity="0.5" d="M54.3035 21.0882C53.5502 19.5362 52.0342 18.7176 50.9182 19.2589C50.7502 19.3403 50.6075 19.4549 50.4781 19.5842C51.4768 19.5322 52.5982 20.2963 53.2142 21.5629C53.8542 22.8829 53.7315 24.3002 52.9968 25.0309C53.2221 25.0189 53.4421 24.9789 53.6475 24.8802C54.7635 24.3376 55.0582 22.6402 54.3035 21.0882" fill="url(#paint4_radial)"/>
</g>
</g>
</g>
</g>
</g>
</g>
</g>
<g id="g19432">
<g id="g19468">
<g id="g19466" opacity="0.5">
<g id="g19464" opacity="0.5">
<g id="g19462" opacity="0.5">
<g id="g19460" opacity="0.5">
<g id="g19458" opacity="0.5">
<path id="path19456" opacity="0.5" d="M66.3955 22.9309C64.7568 19.5562 61.4595 17.7762 59.0315 18.9549C58.8902 19.0242 58.7542 19.1029 58.6248 19.1896C60.9568 18.5962 63.8155 20.3376 65.3048 23.4069C66.8488 26.5842 66.3715 30.0402 64.2848 31.4189C64.5182 31.3589 64.7475 31.2842 64.9675 31.1776C67.3955 29.9989 68.0355 26.3069 66.3955 22.9309Z" fill="url(#paint5_radial)"/>
</g>
</g>
</g>
</g>
</g>
</g>
</g>
<g id="g19470">
<g id="g19506">
<g id="g19504" opacity="0.5">
<g id="g19502" opacity="0.5">
<g id="g19500" opacity="0.5">
<g id="g19498" opacity="0.5">
<g id="g19496" opacity="0.5">
<path id="path19494" opacity="0.5" d="M41.8369 45.0336C40.3049 46.4856 37.4289 45.9363 35.4102 43.8069C33.3929 41.6776 32.9982 38.7749 34.5302 37.3243C36.0609 35.8723 38.9382 36.4229 40.9555 38.5509C42.9742 40.6803 43.3675 43.5829 41.8369 45.0336Z" fill="url(#paint6_radial)"/>
</g>
</g>
</g>
</g>
</g>
</g>
</g>
<g id="g19508">
<g id="g19544">
<g id="g19542" opacity="0.5">
<g id="g19540" opacity="0.5">
<g id="g19538" opacity="0.5">
<g id="g19536" opacity="0.5">
<g id="g19534" opacity="0.5">
<path id="path19532" opacity="0.5" d="M42.6809 43.4763C42.6129 43.5589 42.5409 43.6403 42.4622 43.7149C40.9315 45.1669 38.0542 44.6176 36.0369 42.4883C34.5982 40.9696 33.9889 39.0603 34.3115 37.5629C33.0462 39.0749 33.4969 41.7883 35.4102 43.8069C37.4289 45.9363 40.3049 46.4856 41.8369 45.0336C42.2755 44.6176 42.5515 44.0803 42.6809 43.4763" fill="url(#paint7_radial)"/>
</g>
</g>
</g>
</g>
</g>
</g>
</g>
<g id="g19546">
<g id="g19582">
<g id="g19580" opacity="0.5">
<g id="g19578" opacity="0.5">
<g id="g19576" opacity="0.5">
<g id="g19574" opacity="0.5">
<g id="g19572" opacity="0.5">
<path id="path19570" opacity="0.5" d="M59.0302 37.4376C57.7688 37.9642 56.9355 38.8455 57.1702 39.4055C57.4048 39.9669 58.6168 39.9935 59.8782 39.4669C61.1395 38.9402 61.9715 38.0589 61.7382 37.4989C61.5035 36.9376 60.2915 36.9109 59.0302 37.4376ZM63.4768 36.7349C62.4822 38.3456 62.2555 40.0109 62.9702 40.4522C63.6862 40.8949 65.0742 39.9482 66.0688 38.3376C67.0648 36.7269 67.2915 35.0629 66.5755 34.6202C65.8595 34.1776 64.4728 35.1242 63.4768 36.7349ZM46.7488 48.9162C45.3822 48.8855 44.2635 49.3535 44.2488 49.9615C44.2355 50.5682 45.3328 51.0855 46.6995 51.1162C48.0662 51.1455 49.1848 50.6775 49.1982 50.0709C49.2115 49.4629 48.1142 48.9469 46.7488 48.9162V48.9162ZM62.0408 41.6682C62.7675 43.1695 60.6195 45.7122 57.2422 47.3469C53.8648 48.9815 50.5382 49.0909 49.8115 47.5895C49.0848 46.0882 51.2328 43.5455 54.6102 41.9109C57.9875 40.2762 61.3142 40.1669 62.0408 41.6682" fill="url(#paint8_radial)"/>
</g>
</g>
</g>
</g>
</g>
</g>
</g>
<g id="g19584">
<g id="g19620">
<g id="g19618" opacity="0.5">
<g id="g19616" opacity="0.5">
<g id="g19614" opacity="0.5">
<g id="g19612" opacity="0.5">
<g id="g19610" opacity="0.5">
<path id="path19608" opacity="0.5" d="M65.5035 37.5416C64.5822 39.0336 63.3315 39.9403 62.5822 39.7176C62.6275 40.0523 62.7488 40.3163 62.9702 40.4523C63.6862 40.8949 65.0742 39.9483 66.0688 38.3376C67.0648 36.7269 67.2915 35.0629 66.5755 34.6203C66.5222 34.5869 66.4595 34.5776 66.3982 34.5589C66.5008 35.3029 66.1915 36.4309 65.5035 37.5416" fill="url(#paint9_radial)"/>
</g>
</g>
</g>
</g>
</g>
</g>
</g>
<g id="g19622">
<g id="g19658">
<g id="g19656" opacity="0.5">
<g id="g19654" opacity="0.5">
<g id="g19652" opacity="0.5">
<g id="g19650" opacity="0.5">
<g id="g19648" opacity="0.5">
<path id="path19646" opacity="0.5" d="M59.3128 38.6723C58.4902 39.0149 57.6942 39.1189 57.1715 38.9976C57.1275 39.1443 57.1195 39.2829 57.1702 39.4056C57.4048 39.9669 58.6168 39.9936 59.8782 39.4669C61.1395 38.9403 61.9715 38.0589 61.7382 37.4989C61.6568 37.3029 61.4515 37.1763 61.1715 37.1123C61.0128 37.6349 60.2982 38.2603 59.3128 38.6723Z" fill="url(#paint10_radial)"/>
</g>
</g>
</g>
</g>
</g>
</g>
</g>
<g id="g19660">
<g id="g19696">
<g id="g19694" opacity="0.5">
<g id="g19692" opacity="0.5">
<g id="g19690" opacity="0.5">
<g id="g19688" opacity="0.5">
<g id="g19686" opacity="0.5">
<path id="path19684" opacity="0.5" d="M48.6142 49.3469C48.5168 49.9189 47.4448 50.3496 46.1342 50.3202C45.3795 50.3042 44.7155 50.1362 44.2675 49.8896C44.2635 49.9136 44.2502 49.9362 44.2488 49.9615C44.2355 50.5682 45.3328 51.0855 46.6995 51.1162C48.0662 51.1455 49.1848 50.6775 49.1982 50.0709C49.2048 49.7989 48.9795 49.5482 48.6142 49.3469" fill="url(#paint11_radial)"/>
</g>
</g>
</g>
</g>
</g>
</g>
</g>
<g id="g19698">
<g id="g19734">
<g id="g19732" opacity="0.5">
<g id="g19730" opacity="0.5">
<g id="g19728" opacity="0.5">
<g id="g19726" opacity="0.5">
<g id="g19724" opacity="0.5">
<path id="path19722" opacity="0.5" d="M62.0409 41.6682C61.9355 41.4509 61.7702 41.2709 61.5622 41.1202C61.9689 42.6402 59.8755 45.0029 56.6768 46.5509C53.7902 47.9495 50.9449 48.2269 49.7249 47.3429C49.7475 47.4269 49.7728 47.5109 49.8115 47.5895C50.5382 49.0909 53.8649 48.9815 57.2422 47.3469C60.6195 45.7122 62.7675 43.1695 62.0409 41.6682" fill="url(#paint12_radial)"/>
</g>
</g>
</g>
</g>
</g>
</g>
</g>
<g id="g19736">
<g id="g19772">
<g id="g19770" opacity="0.5">
<g id="g19768" opacity="0.5">
<g id="g19766" opacity="0.5">
<g id="g19764" opacity="0.5">
<g id="g19762" opacity="0.5">
<path id="path19760" opacity="0.5" d="M35.1288 10.2202C33.8302 10.6469 32.9315 11.4616 33.1208 12.0389C33.3115 12.6162 34.5182 12.7376 35.8168 12.3096C37.1155 11.8829 38.0142 11.0682 37.8235 10.4909C37.6342 9.91489 36.4275 9.79355 35.1288 10.2202ZM56.1982 10.1082C54.9088 9.65491 53.6995 9.75089 53.4982 10.3242C53.2968 10.8976 54.1782 11.7296 55.4675 12.1842C56.7568 12.6376 57.9662 12.5416 58.1675 11.9682C58.3688 11.3949 57.4875 10.5629 56.1982 10.1082ZM52.3395 9.30022C52.5795 10.9509 49.7648 12.7269 46.0515 13.2682C42.3382 13.8082 39.1328 12.9096 38.8928 11.2589C38.6528 9.60958 41.4675 7.83224 45.1808 7.29224C48.8942 6.75091 52.0982 7.64955 52.3395 9.30022" fill="url(#paint13_radial)"/>
</g>
</g>
</g>
</g>
</g>
</g>
</g>
<g id="g19774">
<g id="g19810">
<g id="g19808" opacity="0.5">
<g id="g19806" opacity="0.5">
<g id="g19804" opacity="0.5">
<g id="g19802" opacity="0.5">
<g id="g19800" opacity="0.5">
<path id="path19798" opacity="0.5" d="M34.8595 11.3482C35.9822 10.9789 37.0328 11.0216 37.4208 11.4122C37.7515 11.0962 37.9142 10.7669 37.8235 10.4909C37.6342 9.91488 36.4275 9.79354 35.1288 10.2202C33.8302 10.6469 32.9315 11.4616 33.1208 12.0389C33.1475 12.1162 33.1942 12.1842 33.2555 12.2456C33.6168 11.9002 34.1808 11.5709 34.8595 11.3482" fill="url(#paint14_radial)"/>
</g>
</g>
</g>
</g>
</g>
</g>
</g>
<g id="g19812">
<g id="g19848">
<g id="g19846" opacity="0.5">
<g id="g19844" opacity="0.5">
<g id="g19842" opacity="0.5">
<g id="g19840" opacity="0.5">
<g id="g19838" opacity="0.5">
<path id="path19836" opacity="0.5" d="M44.9115 8.42028C48.6049 7.88162 51.7929 8.76962 52.0635 10.4029C52.2875 10.0389 52.3929 9.66691 52.3395 9.30025C52.0982 7.64958 48.8942 6.75094 45.1809 7.29227C41.4675 7.83227 38.6529 9.60961 38.8929 11.2589C38.8942 11.2683 38.8982 11.2763 38.8995 11.2843C39.6862 10.0096 42.0235 8.84028 44.9115 8.42028" fill="url(#paint15_radial)"/>
</g>
</g>
</g>
</g>
</g>
</g>
</g>
<g id="g19850">
<g id="g19886">
<g id="g19884" opacity="0.5">
<g id="g19882" opacity="0.5">
<g id="g19880" opacity="0.5">
<g id="g19878" opacity="0.5">
<g id="g19876" opacity="0.5">
<path id="path19874" opacity="0.5" d="M55.9289 11.2363C56.7262 11.5176 57.3649 11.9429 57.6902 12.3616C57.9289 12.2789 58.1035 12.1509 58.1675 11.9682C58.3689 11.3949 57.4875 10.5629 56.1982 10.1083C54.9089 9.65492 53.6995 9.7509 53.4982 10.3242C53.4209 10.5429 53.5035 10.8002 53.7049 11.0589C54.2155 10.8789 55.0489 10.9269 55.9289 11.2363" fill="url(#paint16_radial)"/>
</g>
</g>
</g>
</g>
</g>
</g>
</g>
<g id="g19888">
<g id="g19924">
<g id="g19922" opacity="0.5">
<g id="g19920" opacity="0.5">
<g id="g19918" opacity="0.5">
<g id="g19916" opacity="0.5">
<g id="g19914" opacity="0.5">
<path id="path19912" opacity="0.5" d="M30.3728 21.7816C30.4755 20.3736 30.0262 19.1936 29.3702 19.1469C28.7142 19.0989 28.0982 20.2016 27.9968 21.6096C27.8942 23.0176 28.3435 24.1976 28.9995 24.2456C29.6555 24.2922 30.2715 23.1896 30.3728 21.7816V21.7816ZM29.4328 37.3802C29.0328 36.0269 28.1982 35.0802 27.5662 35.2669C26.9355 35.4522 26.7475 36.7016 27.1475 38.0549C27.5462 39.4096 28.3822 40.3549 29.0128 40.1696C29.6448 39.9829 29.8328 38.7349 29.4328 37.3802V37.3802ZM26.5982 33.6843C25.2808 33.7869 24.0355 31.5776 23.8168 28.7523C23.5968 25.9269 24.4875 23.5536 25.8048 23.4509C27.1222 23.3496 28.3675 25.5576 28.5862 28.3829C28.8048 31.2082 27.9142 33.5829 26.5982 33.6843Z" fill="url(#paint17_radial)"/>
</g>
</g>
</g>
</g>
</g>
</g>
</g>
<g id="g19926">
<g id="g19962">
<g id="g19960" opacity="0.5">
<g id="g19958" opacity="0.5">
<g id="g19956" opacity="0.5">
<g id="g19954" opacity="0.5">
<g id="g19952" opacity="0.5">
<path id="path19950" opacity="0.5" d="M28.9995 24.2456C29.2102 24.2602 29.4142 24.1469 29.6009 23.9536C29.1582 23.5762 28.8875 22.6109 28.9689 21.4909C29.0382 20.5349 29.3462 19.7296 29.7408 19.3202C29.6275 19.2229 29.5048 19.1562 29.3702 19.1469C28.7142 19.0989 28.0982 20.2016 27.9969 21.6096C27.8942 23.0176 28.3435 24.1976 28.9995 24.2456" fill="url(#paint18_radial)"/>
</g>
</g>
</g>
</g>
</g>
</g>
</g>
<g id="g19964">
<g id="g20000">
<g id="g19998" opacity="0.5">
<g id="g19996" opacity="0.5">
<g id="g19994" opacity="0.5">
<g id="g19992" opacity="0.5">
<g id="g19990" opacity="0.5">
<path id="path19988" opacity="0.5" d="M28.1195 37.9376C27.8048 36.8736 27.8582 35.8829 28.1995 35.4136C27.9822 35.2709 27.7635 35.2082 27.5662 35.2656C26.9355 35.4522 26.7475 36.7016 27.1475 38.0549C27.5462 39.4096 28.3822 40.3549 29.0128 40.1696C29.1488 40.1296 29.2595 40.0322 29.3515 39.9042C28.8742 39.5936 28.3942 38.8669 28.1195 37.9376" fill="url(#paint19_radial)"/>
</g>
</g>
</g>
</g>
</g>
</g>
</g>
<g id="g20002">
<g id="g20038">
<g id="g20036" opacity="0.5">
<g id="g20034" opacity="0.5">
<g id="g20032" opacity="0.5">
<g id="g20030" opacity="0.5">
<g id="g20028" opacity="0.5">
<path id="path20026" opacity="0.5" d="M24.7888 28.6349C24.5995 26.2029 25.2355 24.1149 26.2555 23.5123C26.1075 23.4656 25.9568 23.4389 25.8048 23.4509C24.4875 23.5536 23.5968 25.9269 23.8168 28.7523C24.0355 31.5776 25.2808 33.7869 26.5982 33.6843C26.7808 33.6696 26.9542 33.6029 27.1195 33.5056C25.9795 33.1443 24.9822 31.1349 24.7888 28.6349Z" fill="url(#paint20_radial)"/>
</g>
</g>
</g>
</g>
</g>
</g>
</g>
<g id="g20040">
<g id="g20100">
<g id="g20098">
<g id="g20096">
<g id="g20094">
<g id="g20092">
<g id="g20090">
<g id="g20088">
<path id="path20086" d="M67.4462 48.3295C56.6862 60.0789 38.4395 60.8789 26.6902 50.1189C14.9422 39.3589 14.1409 21.1122 24.9009 9.36291C35.6622 -2.38509 53.9089 -3.18643 65.6569 7.5749C77.4049 18.3349 78.2062 36.5815 67.4462 48.3295" fill="url(#paint21_radial)"/>
</g>
</g>
</g>
</g>
</g>
</g>
</g>
</g>
<g id="g20102">
<g id="g20144">
<g id="g20142" opacity="0.449997">
<g id="g20128" opacity="0.449997">
<g id="g20126" opacity="0.449997">
<g id="g20124" opacity="0.449997">
<g id="g20122" opacity="0.449997">
<path id="path20120" opacity="0.449997" d="M48.8284 12.9683C49.0044 14.5963 46.8031 16.1683 43.9124 16.4803C41.0218 16.7923 38.5364 15.7243 38.3604 14.0963C38.1844 12.4683 40.3858 10.8963 43.2764 10.5843C46.1671 10.2737 48.6524 11.3403 48.8284 12.9683Z" fill="#F4A400"/>
</g>
</g>
</g>
</g>
<g id="g20140" opacity="0.449997">
<g id="g20138" opacity="0.449997">
<g id="g20136" opacity="0.449997">
<g id="g20134" opacity="0.449997">
<path id="path20132" opacity="0.449997" d="M56.5005 14.2745C56.2579 15.2065 54.7192 15.6118 53.0645 15.1798C51.4099 14.7478 50.2659 13.6425 50.5085 12.7105C50.7512 11.7785 52.2899 11.3732 53.9445 11.8052C55.5992 12.2372 56.7432 13.3425 56.5005 14.2745Z" fill="#F4A400"/>
</g>
</g>
</g>
</g>
</g>
</g>
</g>
<g id="g20146">
<path id="path20148" d="M90.4798 40.475C91.6158 36.215 82.9518 29.939 69.2665 24.2697C69.4651 25.1977 69.5478 26.1697 69.5638 27.143C77.9318 31.1577 82.9318 35.2977 82.1438 38.251C80.8011 43.283 63.2131 42.9604 42.8598 37.531C22.5065 32.1004 7.09445 23.6204 8.43712 18.5884C9.28779 15.3977 16.6771 14.363 27.1571 15.4164C27.5665 14.595 28.0678 13.8417 28.6571 13.1644C12.8918 10.8777 1.29045 11.9044 0.0997856 16.3644C-1.54555 22.535 17.3518 32.9337 42.3105 39.591C67.2678 46.2497 88.8344 46.6444 90.4798 40.475Z" fill="#F4A400"/>
</g>
<g id="g20150">
<g id="g20164">
<g id="g20162" opacity="0.539993">
<g id="g20160" opacity="0.539993">
<path id="path20158" opacity="0.539993" d="M72.6066 26.5883C72.7466 26.3416 72.9453 26.1403 73.1879 25.9736C71.9319 25.4016 70.6253 24.8323 69.2666 24.2696C69.4653 25.1976 69.5479 26.1696 69.5639 27.1429C77.9319 31.1576 82.9319 35.2976 82.1439 38.2509C80.8013 43.2829 63.2133 42.9603 42.8599 37.5309C22.5066 32.1016 7.0946 23.6203 8.43727 18.5883C9.28794 15.3976 16.6773 14.3629 27.1573 15.4163C27.5666 14.5949 28.0679 13.8416 28.6573 13.1643C19.9759 11.9056 12.5626 11.6536 7.44927 12.4229C12.7799 12.3909 21.8773 12.4816 21.2106 13.5083C20.2719 14.9523 2.6706 11.3149 7.3026 20.9349C11.9359 30.5549 40.3173 37.7283 51.3586 40.3523C62.3999 42.9749 77.8773 43.8989 84.3479 40.6069C90.8199 37.3163 71.0239 29.3643 72.6066 26.5883Z" fill="#F4A400"/>
</g>
</g>
</g>
</g>
<g id="g20166">
<g id="g20208">
<g id="g20206">
<g id="g20192">
<g id="g20190">
<g id="g20188" opacity="0.539993">
<g id="g20186" opacity="0.539993">
<path id="path20184" opacity="0.539993" d="M6.43271 21.7768C6.34071 21.8341 6.04471 21.5381 5.54604 21.1754C5.05537 20.7968 4.34071 20.3701 3.66471 19.7168C2.99938 19.0714 2.47938 18.1448 2.46738 17.2688C2.45404 16.8408 2.55538 16.4768 2.64604 16.2421C2.73938 16.0048 2.81804 15.8834 2.81804 15.8834C2.81804 15.8834 2.89671 15.7608 3.05671 15.5768C3.21804 15.3928 3.47138 15.1674 3.78871 14.9634C4.42471 14.5514 5.31538 14.2728 6.14071 14.0794C7.82604 13.6568 9.55004 13.5381 9.58337 13.7448C9.61804 13.9474 7.99937 14.4301 6.47271 15.0874C5.68871 15.4088 4.98737 15.7528 4.58871 16.0914C4.19004 16.4261 4.09271 16.6768 4.09271 16.6768C4.09271 16.6768 3.90071 16.8794 3.85004 17.2928C3.78604 17.7034 4.00604 18.4061 4.46604 19.0208C4.91671 19.6328 5.56471 20.2288 5.95937 20.7621C6.36871 21.2901 6.51804 21.7261 6.43271 21.7768Z" fill="#F4A400"/>
</g>
</g>
</g>
</g>
<g id="g20204">
<g id="g20202">
<g id="g20200" opacity="0.539993">
<g id="g20198" opacity="0.539993">
<path id="path20196" opacity="0.539993" d="M78.4473 44.2273C78.4339 44.0233 81.1726 43.658 83.8019 42.9153C85.1326 42.5567 86.4059 42.154 87.1233 41.622C87.4926 41.3673 87.7246 41.11 87.8766 40.9153C88.0246 40.7207 88.0899 40.602 88.0899 40.602C88.0899 40.602 88.1726 40.4913 88.2779 40.286C88.3806 40.0807 88.5046 39.774 88.5059 39.4033C88.5126 39.0313 88.3766 38.558 88.0859 38.0527C87.7979 37.55 87.3859 37.0073 86.9593 36.5073C86.0926 35.5033 85.0433 34.6513 84.1939 34.094C83.3459 33.5327 82.7246 33.2193 82.7646 33.1167C82.7966 33.0247 83.4953 33.1527 84.4739 33.5807C85.4513 34.0033 86.6779 34.774 87.7259 35.7727C88.2473 36.2767 88.7286 36.7993 89.1393 37.3887C89.5473 37.974 89.8446 38.6713 89.8873 39.342C89.9353 40.0153 89.7593 40.5513 89.6179 40.8913C89.4699 41.2353 89.3539 41.4113 89.3539 41.4113C89.3539 41.4113 89.2406 41.59 89.0019 41.862C88.7659 42.1287 88.3793 42.49 87.8673 42.7873C86.8393 43.418 85.3926 43.7193 84.0313 43.9513C81.2593 44.4473 78.4553 44.4367 78.4473 44.2273Z" fill="#F4A400"/>
</g>
</g>
</g>
</g>
</g>
</g>
</g>
</g>
</g>
</g>
<defs>
<radialGradient id="paint0_radial" cx="0" cy="0" r="1" gradientUnits="userSpaceOnUse" gradientTransform="translate(50.7499 10.1751) rotate(102.3) scale(51.9003)">
<stop stop-color="#FF0077"/>
<stop offset="0.384182" stop-color="#FF0077"/>
<stop offset="0.898496" stop-color="#8244B0"/>
<stop offset="0.942285" stop-color="#8244B0"/>
<stop offset="1" stop-color="#8244B0"/>
</radialGradient>
<radialGradient id="paint1_radial" cx="0" cy="0" r="1" gradientUnits="userSpaceOnUse" gradientTransform="translate(47.7933 13.4093) rotate(102.3) scale(48.5869)">
<stop stop-color="#FF0077"/>
<stop offset="0.384182" stop-color="#FF0077"/>
<stop offset="0.898496" stop-color="#8244B0"/>
<stop offset="0.942285" stop-color="#8244B0"/>
<stop offset="1" stop-color="#8244B0"/>
</radialGradient>
<radialGradient id="paint2_radial" cx="0" cy="0" r="1" gradientUnits="userSpaceOnUse" gradientTransform="translate(44.0776 19.5416) rotate(102.3) scale(40.8265)">
<stop stop-color="#FF0077"/>
<stop offset="0.384182" stop-color="#FF0077"/>
<stop offset="0.898496" stop-color="#8244B0"/>
<stop offset="0.942285" stop-color="#8244B0"/>
<stop offset="1" stop-color="#8244B0"/>
</radialGradient>
<radialGradient id="paint3_radial" cx="0" cy="0" r="1" gradientUnits="userSpaceOnUse" gradientTransform="translate(68.5439 -4.71129) rotate(87.4865) scale(32.0063)">
<stop stop-color="#FF0077"/>
<stop offset="0.384182" stop-color="#FF0077"/>
<stop offset="0.898496" stop-color="#8244B0"/>
<stop offset="0.942285" stop-color="#8244B0"/>
<stop offset="1" stop-color="#8244B0"/>
</radialGradient>
<radialGradient id="paint4_radial" cx="0" cy="0" r="1" gradientUnits="userSpaceOnUse" gradientTransform="translate(55.8499 12.2568) rotate(87.4865) scale(10.7615)">
<stop stop-color="#FF0077"/>
<stop offset="0.384182" stop-color="#FF0077"/>
<stop offset="0.898496" stop-color="#8244B0"/>
<stop offset="0.942285" stop-color="#8244B0"/>
<stop offset="1" stop-color="#8244B0"/>
</radialGradient>
<radialGradient id="paint5_radial" cx="0" cy="0" r="1" gradientUnits="userSpaceOnUse" gradientTransform="translate(69.1623 4.52469) rotate(87.4865) scale(22.3057)">
<stop stop-color="#FF0077"/>
<stop offset="0.384182" stop-color="#FF0077"/>
<stop offset="0.898496" stop-color="#8244B0"/>
<stop offset="0.942285" stop-color="#8244B0"/>
<stop offset="1" stop-color="#8244B0"/>
</radialGradient>
<radialGradient id="paint6_radial" cx="0" cy="0" r="1" gradientUnits="userSpaceOnUse" gradientTransform="translate(45.959 24.0959) rotate(104.825) scale(14.5344 23.5207)">
<stop stop-color="#FF0077"/>
<stop offset="0.384182" stop-color="#FF0077"/>
<stop offset="0.898496" stop-color="#8244B0"/>
<stop offset="0.942285" stop-color="#8244B0"/>
<stop offset="1" stop-color="#8244B0"/>
</radialGradient>
<radialGradient id="paint7_radial" cx="0" cy="0" r="1" gradientUnits="userSpaceOnUse" gradientTransform="translate(40.1106 28.6595) rotate(87.4865) scale(15.274)">
<stop stop-color="#FF0077"/>
<stop offset="0.384182" stop-color="#FF0077"/>
<stop offset="0.898496" stop-color="#8244B0"/>
<stop offset="0.942285" stop-color="#8244B0"/>
<stop offset="1" stop-color="#8244B0"/>
</radialGradient>
<radialGradient id="paint8_radial" cx="0" cy="0" r="1" gradientUnits="userSpaceOnUse" gradientTransform="translate(31.8071 34.5218) rotate(19.1658) scale(31.1958)">
<stop stop-color="#FF0077"/>
<stop offset="0.384182" stop-color="#FF0077"/>
<stop offset="0.898496" stop-color="#8244B0"/>
<stop offset="0.942285" stop-color="#8244B0"/>
<stop offset="1" stop-color="#8244B0"/>
</radialGradient>
<radialGradient id="paint9_radial" cx="0" cy="0" r="1" gradientUnits="userSpaceOnUse" gradientTransform="translate(74.2749 25.3681) rotate(87.4865) scale(15.3128)">
<stop stop-color="#FF0077"/>
<stop offset="0.384182" stop-color="#FF0077"/>
<stop offset="0.898496" stop-color="#8244B0"/>
<stop offset="0.942285" stop-color="#8244B0"/>
<stop offset="1" stop-color="#8244B0"/>
</radialGradient>
<radialGradient id="paint10_radial" cx="0" cy="0" r="1" gradientUnits="userSpaceOnUse" gradientTransform="translate(65.2017 29.5614) rotate(87.4865) scale(10.5908)">
<stop stop-color="#FF0077"/>
<stop offset="0.384182" stop-color="#FF0077"/>
<stop offset="0.898496" stop-color="#8244B0"/>
<stop offset="0.942285" stop-color="#8244B0"/>
<stop offset="1" stop-color="#8244B0"/>
</radialGradient>
<radialGradient id="paint11_radial" cx="0" cy="0" r="1" gradientUnits="userSpaceOnUse" gradientTransform="translate(50.4699 42.1727) rotate(87.4865) scale(8.96177)">
<stop stop-color="#FF0077"/>
<stop offset="0.384182" stop-color="#FF0077"/>
<stop offset="0.898496" stop-color="#8244B0"/>
<stop offset="0.942285" stop-color="#8244B0"/>
<stop offset="1" stop-color="#8244B0"/>
</radialGradient>
<radialGradient id="paint12_radial" cx="0" cy="0" r="1" gradientUnits="userSpaceOnUse" gradientTransform="translate(72.8307 20.5369) rotate(87.4865) scale(29.3547)">
<stop stop-color="#FF0077"/>
<stop offset="0.384182" stop-color="#FF0077"/>
<stop offset="0.898496" stop-color="#8244B0"/>
<stop offset="0.942285" stop-color="#8244B0"/>
<stop offset="1" stop-color="#8244B0"/>
</radialGradient>
<radialGradient id="paint13_radial" cx="0" cy="0" r="1" gradientUnits="userSpaceOnUse" gradientTransform="translate(26.9017 -2.35749) rotate(36.7103) scale(27.938)">
<stop stop-color="#FF0077"/>
<stop offset="0.384182" stop-color="#FF0077"/>
<stop offset="0.898496" stop-color="#8244B0"/>
<stop offset="0.942285" stop-color="#8244B0"/>
<stop offset="1" stop-color="#8244B0"/>
</radialGradient>
<radialGradient id="paint14_radial" cx="0" cy="0" r="1" gradientUnits="userSpaceOnUse" gradientTransform="translate(40.7988 2.41335) rotate(87.4865) scale(10.3715)">
<stop stop-color="#FF0077"/>
<stop offset="0.384182" stop-color="#FF0077"/>
<stop offset="0.898496" stop-color="#8244B0"/>
<stop offset="0.942285" stop-color="#8244B0"/>
<stop offset="1" stop-color="#8244B0"/>
</radialGradient>
<radialGradient id="paint15_radial" cx="0" cy="0" r="1" gradientUnits="userSpaceOnUse" gradientTransform="translate(57.6695 -12.484) rotate(87.4865) scale(26.02)">
<stop stop-color="#FF0077"/>
<stop offset="0.384182" stop-color="#FF0077"/>
<stop offset="0.898496" stop-color="#8244B0"/>
<stop offset="0.942285" stop-color="#8244B0"/>
<stop offset="1" stop-color="#8244B0"/>
</radialGradient>
<radialGradient id="paint16_radial" cx="0" cy="0" r="1" gradientUnits="userSpaceOnUse" gradientTransform="translate(57.841 4.39856) rotate(87.4865) scale(7.58526)">
<stop stop-color="#FF0077"/>
<stop offset="0.384182" stop-color="#FF0077"/>
<stop offset="0.898496" stop-color="#8244B0"/>
<stop offset="0.942285" stop-color="#8244B0"/>
<stop offset="1" stop-color="#8244B0"/>
</radialGradient>
<radialGradient id="paint17_radial" cx="0" cy="0" r="1" gradientUnits="userSpaceOnUse" gradientTransform="translate(42.6011 14.6739) rotate(131.939) scale(24.8807 26.0961)">
<stop stop-color="#FF0077"/>
<stop offset="0.384182" stop-color="#FF0077"/>
<stop offset="0.898496" stop-color="#8244B0"/>
<stop offset="0.942285" stop-color="#8244B0"/>
<stop offset="1" stop-color="#8244B0"/>
</radialGradient>
<radialGradient id="paint18_radial" cx="0" cy="0" r="1" gradientUnits="userSpaceOnUse" gradientTransform="translate(33.9389 12.8894) rotate(87.4865) scale(10.1554)">
<stop stop-color="#FF0077"/>
<stop offset="0.384182" stop-color="#FF0077"/>
<stop offset="0.898496" stop-color="#8244B0"/>
<stop offset="0.942285" stop-color="#8244B0"/>
<stop offset="1" stop-color="#8244B0"/>
</radialGradient>
<radialGradient id="paint19_radial" cx="0" cy="0" r="1" gradientUnits="userSpaceOnUse" gradientTransform="translate(31.1396 30.1374) rotate(87.4865) scale(8.5462)">
<stop stop-color="#FF0077"/>
<stop offset="0.384182" stop-color="#FF0077"/>
<stop offset="0.898496" stop-color="#8244B0"/>
<stop offset="0.942285" stop-color="#8244B0"/>
<stop offset="1" stop-color="#8244B0"/>
</radialGradient>
<radialGradient id="paint20_radial" cx="0" cy="0" r="1" gradientUnits="userSpaceOnUse" gradientTransform="translate(33.9694 12.0668) rotate(87.4865) scale(18.8129)">
<stop stop-color="#FF0077"/>
<stop offset="0.384182" stop-color="#FF0077"/>
<stop offset="0.898496" stop-color="#8244B0"/>
<stop offset="0.942285" stop-color="#8244B0"/>
<stop offset="1" stop-color="#8244B0"/>
</radialGradient>
<radialGradient id="paint21_radial" cx="0" cy="0" r="1" gradientUnits="userSpaceOnUse" gradientTransform="translate(46.8872 28.3573) rotate(102.3) scale(29.1017)">
<stop stop-color="#461980"/>
<stop offset="0.799087" stop-color="#461980"/>
<stop offset="1" stop-color="#19B2DB"/>
</radialGradient>
</defs>
</svg>
