<svg width="101" height="72" viewBox="0 0 101 72" fill="none" xmlns="http://www.w3.org/2000/svg">
<g id="planet5">
<g id="g20238">
<g id="g20244">
<g id="g20258">
<g id="g20256" opacity="0.449997">
<g id="g20254" opacity="0.449997">
<path id="path20252" opacity="0.449997" d="M23.6899 38.7814C22.7726 22.6708 35.0886 8.86678 51.1993 7.94945C59.3299 7.48678 66.8699 10.3974 72.4646 15.4614C66.7606 9.53478 58.6059 6.03344 49.7486 6.53744C33.6379 7.45478 21.3219 21.2588 22.2393 37.3694C22.6939 45.3494 26.3126 52.3948 31.8046 57.3668C27.1339 52.5121 24.1033 46.0348 23.6899 38.7814Z" fill="#F4A400"/>
</g>
</g>
</g>
</g>
<g id="g20260">
<g id="g20274">
<g id="g20272" opacity="0.449997">
<g id="g20270" opacity="0.449997">
<path id="path20268" opacity="0.449997" d="M35.1037 52.4473C34.2903 38.1647 45.2103 25.926 59.493 25.1127C66.473 24.7153 72.9597 27.1247 77.8677 31.354C75.1517 19.1953 63.9663 10.438 51.1223 11.1687C36.8397 11.982 25.9197 24.2207 26.733 38.5033C27.149 45.8073 30.557 52.2273 35.693 56.6527C35.389 55.29 35.185 53.8873 35.1037 52.4473Z" fill="#F4A400"/>
</g>
</g>
</g>
</g>
<g id="g20276">
<g id="g20312">
<g id="g20310" opacity="0.5">
<g id="g20308" opacity="0.5">
<g id="g20306" opacity="0.5">
<g id="g20304" opacity="0.5">
<g id="g20302" opacity="0.5">
<path id="path20300" opacity="0.5" d="M68.2273 11.8241C69.1713 14.3108 69.758 16.9801 69.9166 19.7761C70.754 34.4735 59.5166 47.0681 44.8193 47.9041C35.7353 48.4215 27.4606 44.3241 22.262 37.6521C23.326 53.6228 37.0553 65.7908 53.07 64.8788C69.1806 63.9615 81.498 50.1575 80.5806 34.0468C80.0526 24.7855 75.262 16.7841 68.2273 11.8241" fill="url(#paint0_radial)"/>
</g>
</g>
</g>
</g>
</g>
</g>
</g>
<g id="g20314">
<g id="g20350">
<g id="g20348" opacity="0.5">
<g id="g20346" opacity="0.5">
<g id="g20344" opacity="0.5">
<g id="g20342" opacity="0.5">
<g id="g20340" opacity="0.5">
<path id="path20338" opacity="0.5" d="M75.1139 21.8521C76.2699 24.6361 76.9899 27.6561 77.1699 30.8375C78.0352 46.0268 66.4232 59.0401 51.2339 59.9055C40.6219 60.5095 31.0806 55.0188 25.9952 46.4775C30.3646 56.9721 40.9912 64.0748 52.9859 63.3908C68.1752 62.5268 79.7872 49.5121 78.9232 34.3228C78.6632 29.7601 77.2966 25.5268 75.1139 21.8521Z" fill="url(#paint1_radial)"/>
</g>
</g>
</g>
</g>
</g>
</g>
</g>
<g id="g20352">
<g id="g20388">
<g id="g20386" opacity="0.5">
<g id="g20384" opacity="0.5">
<g id="g20382" opacity="0.5">
<g id="g20380" opacity="0.5">
<g id="g20378" opacity="0.5">
<path id="path20376" opacity="0.5" d="M51.554 21.7975C49.5273 21.1255 47.4913 21.7628 47.0073 23.2201C46.5246 24.6788 47.7753 26.4055 49.8033 27.0775C51.83 27.7508 53.8646 27.1134 54.3486 25.6548C54.8326 24.1974 53.5806 22.4708 51.554 21.7975ZM69.7113 21.0588C68.6593 24.2295 64.2326 25.6148 59.8246 24.1521C55.4166 22.6895 52.6953 18.9335 53.7473 15.7628C54.7993 12.5921 59.2246 11.2081 63.634 12.6695C68.042 14.1321 70.7633 17.8881 69.7113 21.0588Z" fill="url(#paint2_radial)"/>
</g>
</g>
</g>
</g>
</g>
</g>
</g>
<g id="g20390">
<g id="g20426">
<g id="g20424" opacity="0.5">
<g id="g20422" opacity="0.5">
<g id="g20420" opacity="0.5">
<g id="g20418" opacity="0.5">
<g id="g20416" opacity="0.5">
<path id="path20414" opacity="0.5" d="M51.5539 21.7975C49.5273 21.1255 47.4913 21.7628 47.0073 23.2201C46.9353 23.4388 46.9139 23.6641 46.9153 23.8908C47.7326 22.9601 49.3793 22.6255 51.0339 23.1748C52.7566 23.7468 53.9073 25.0788 53.9206 26.3615C54.1046 26.1521 54.2606 25.9228 54.3486 25.6548C54.8326 24.1975 53.5806 22.4708 51.5539 21.7975" fill="url(#paint3_radial)"/>
</g>
</g>
</g>
</g>
</g>
</g>
</g>
<g id="g20428">
<g id="g20464">
<g id="g20462" opacity="0.5">
<g id="g20460" opacity="0.5">
<g id="g20458" opacity="0.5">
<g id="g20456" opacity="0.5">
<g id="g20454" opacity="0.5">
<path id="path20452" opacity="0.5" d="M63.6339 12.6695C59.2246 11.2081 54.7979 12.5921 53.7473 15.7628C53.6846 15.9495 53.6393 16.1375 53.6033 16.3268C55.0913 13.7468 59.1046 12.7175 63.1126 14.0468C67.2633 15.4228 69.9153 18.8321 69.3353 21.8721C69.4833 21.6148 69.6153 21.3468 69.7113 21.0588C70.7633 17.8881 68.0419 14.1321 63.6339 12.6695" fill="url(#paint4_radial)"/>
</g>
</g>
</g>
</g>
</g>
</g>
</g>
<g id="g20466">
<g id="g20502">
<g id="g20500" opacity="0.5">
<g id="g20498" opacity="0.5">
<g id="g20496" opacity="0.5">
<g id="g20494" opacity="0.5">
<g id="g20492" opacity="0.5">
<path id="path20490" opacity="0.5" d="M62.0153 53.5361C61.9793 56.1481 59.0059 58.2242 55.3753 58.1735C51.7446 58.1228 48.8313 55.9655 48.8673 53.3548C48.9033 50.7428 51.8753 48.6668 55.5059 48.7175C59.1366 48.7681 62.0513 50.9255 62.0153 53.5361Z" fill="url(#paint5_radial)"/>
</g>
</g>
</g>
</g>
</g>
</g>
</g>
<g id="g20504">
<g id="g20540">
<g id="g20538" opacity="0.5">
<g id="g20536" opacity="0.5">
<g id="g20534" opacity="0.5">
<g id="g20532" opacity="0.5">
<g id="g20530" opacity="0.5">
<path id="path20528" opacity="0.5" d="M61.3633 51.4428C61.3766 51.5748 61.3886 51.7082 61.386 51.8428C61.35 54.4535 58.378 56.5295 54.7473 56.4801C52.158 56.4441 49.9406 55.3335 48.89 53.7548C49.1393 56.1828 51.9326 58.1255 55.3753 58.1735C59.006 58.2242 61.9793 56.1481 62.0153 53.5361C62.0246 52.7868 61.7859 52.0788 61.3633 51.4428" fill="url(#paint6_radial)"/>
</g>
</g>
</g>
</g>
</g>
</g>
</g>
<g id="g20542">
<g id="g20578">
<g id="g20576" opacity="0.5">
<g id="g20574" opacity="0.5">
<g id="g20572" opacity="0.5">
<g id="g20570" opacity="0.5">
<g id="g20568" opacity="0.5">
<path id="path20566" opacity="0.5" d="M70.1313 31.7308C69.5086 33.3041 69.5713 34.8041 70.2713 35.0801C70.9699 35.3575 72.042 34.3055 72.6646 32.7321C73.286 31.1588 73.2246 29.6588 72.5246 29.3828C71.826 29.1055 70.754 30.1575 70.1313 31.7308ZM73.3513 27.1815C73.9193 29.4561 75.198 31.0948 76.2086 30.8415C77.2193 30.5895 77.5779 28.5415 77.0099 26.2668C76.4419 23.9935 75.162 22.3548 74.1513 22.6068C73.142 22.8601 72.782 24.9081 73.3513 27.1815ZM69.6993 52.5361C68.4926 53.7214 67.9406 55.1175 68.4673 55.6535C68.994 56.1908 70.4006 55.6641 71.6073 54.4788C72.8153 53.2934 73.366 51.8975 72.8393 51.3601C72.3126 50.8241 70.9073 51.3494 69.6993 52.5361ZM76.4846 32.7161C78.442 33.3681 78.8406 37.4695 77.3726 41.8761C75.9046 46.2828 73.1273 49.3255 71.1686 48.6735C69.21 48.0215 68.8126 43.9201 70.2806 39.5135C71.7486 35.1068 74.526 32.0641 76.4846 32.7161Z" fill="url(#paint7_radial)"/>
</g>
</g>
</g>
</g>
</g>
</g>
</g>
<g id="g20580">
<g id="g20616">
<g id="g20614" opacity="0.5">
<g id="g20612" opacity="0.5">
<g id="g20610" opacity="0.5">
<g id="g20608" opacity="0.5">
<g id="g20606" opacity="0.5">
<path id="path20604" opacity="0.5" d="M75.8166 26.0815C76.3433 28.1868 76.0673 30.0788 75.2219 30.5521C75.5579 30.7988 75.8966 30.9201 76.2086 30.8414C77.2193 30.5894 77.5793 28.5414 77.0099 26.2668C76.4419 23.9934 75.1619 22.3548 74.1526 22.6068C74.0766 22.6254 74.0126 22.6735 73.9459 22.7108C74.6926 23.2628 75.4246 24.5121 75.8166 26.0815Z" fill="url(#paint8_radial)"/>
</g>
</g>
</g>
</g>
</g>
</g>
</g>
<g id="g20618">
<g id="g20654">
<g id="g20652" opacity="0.5">
<g id="g20650" opacity="0.5">
<g id="g20648" opacity="0.5">
<g id="g20646" opacity="0.5">
<g id="g20644" opacity="0.5">
<path id="path20642" opacity="0.5" d="M71.4699 32.5468C71.0646 33.5721 70.4686 34.3668 69.9099 34.7268C70.0006 34.8921 70.1179 35.0201 70.2712 35.0801C70.9699 35.3574 72.0419 34.3054 72.6646 32.7321C73.2859 31.1588 73.2246 29.6588 72.5246 29.3828C72.2819 29.2868 71.9912 29.3588 71.6926 29.5508C72.0192 30.1428 71.9566 31.3174 71.4699 32.5468Z" fill="url(#paint9_radial)"/>
</g>
</g>
</g>
</g>
</g>
</g>
</g>
<g id="g20656">
<g id="g20692">
<g id="g20690" opacity="0.5">
<g id="g20688" opacity="0.5">
<g id="g20686" opacity="0.5">
<g id="g20684" opacity="0.5">
<g id="g20682" opacity="0.5">
<path id="path20680" opacity="0.5" d="M71.6939 51.2535C72.1153 51.8335 71.5713 53.1561 70.4139 54.2935C69.7473 54.9468 69.0259 55.3908 68.4193 55.5761C68.4366 55.6001 68.4459 55.6321 68.4673 55.6535C68.9939 56.1908 70.4006 55.6641 71.6072 54.4788C72.8152 53.2934 73.3659 51.8975 72.8393 51.3601C72.6033 51.1201 72.1859 51.1028 71.6939 51.2535" fill="url(#paint10_radial)"/>
</g>
</g>
</g>
</g>
</g>
</g>
</g>
<g id="g20694">
<g id="g20730">
<g id="g20728" opacity="0.5">
<g id="g20726" opacity="0.5">
<g id="g20724" opacity="0.5">
<g id="g20722" opacity="0.5">
<g id="g20720" opacity="0.5">
<path id="path20718" opacity="0.5" d="M76.4846 32.7161C76.1992 32.6215 75.8966 32.6135 75.5846 32.6668C77.2832 33.6201 77.5699 37.5161 76.1792 41.6908C74.9246 45.4575 72.7139 48.2201 70.8752 48.5375C70.9699 48.5908 71.0659 48.6388 71.1686 48.6735C73.1272 49.3255 75.9046 46.2828 77.3726 41.8761C78.8406 37.4695 78.4419 33.3681 76.4846 32.7161" fill="url(#paint11_radial)"/>
</g>
</g>
</g>
</g>
</g>
</g>
</g>
<g id="g20732">
<g id="g20768">
<g id="g20766" opacity="0.5">
<g id="g20764" opacity="0.5">
<g id="g20762" opacity="0.5">
<g id="g20760" opacity="0.5">
<g id="g20758" opacity="0.5">
<path id="path20756" opacity="0.5" d="M25.3539 29.4108C24.6113 30.9308 24.5566 32.4308 25.2326 32.7615C25.9086 33.0908 27.0579 32.1268 27.8019 30.6068C28.5446 29.0855 28.5993 27.5855 27.9233 27.2561C27.2473 26.9255 26.0979 27.8908 25.3539 29.4108ZM43.4553 10.6348C41.9393 11.3855 40.9806 12.5401 41.3153 13.2148C41.6486 13.8881 43.1486 13.8255 44.6646 13.0748C46.1806 12.3241 47.1393 11.1681 46.8059 10.4948C46.4713 9.82012 44.9713 9.8828 43.4553 10.6348V10.6348ZM39.4059 13.3575C41.0766 14.5695 40.2193 18.6001 37.4913 22.3588C34.7633 26.1188 31.1979 28.1828 29.5273 26.9708C27.8566 25.7588 28.7139 21.7281 31.4406 17.9695C34.1686 14.2095 37.7353 12.1455 39.4059 13.3575" fill="url(#paint12_radial)"/>
</g>
</g>
</g>
</g>
</g>
</g>
</g>
<g id="g20770">
<g id="g20806">
<g id="g20804" opacity="0.5">
<g id="g20802" opacity="0.5">
<g id="g20800" opacity="0.5">
<g id="g20798" opacity="0.5">
<g id="g20796" opacity="0.5">
<path id="path20794" opacity="0.5" d="M26.1219 30.6241C26.7646 29.3095 27.7099 28.4148 28.3913 28.4081C28.3966 27.8428 28.2459 27.4135 27.9233 27.2561C27.2473 26.9255 26.0979 27.8908 25.3539 29.4108C24.6113 30.9308 24.5566 32.4308 25.2326 32.7614C25.3246 32.8054 25.4259 32.8228 25.5326 32.8214C25.5393 32.2028 25.7339 31.4175 26.1219 30.6241Z" fill="url(#paint13_radial)"/>
</g>
</g>
</g>
</g>
</g>
</g>
</g>
<g id="g20808">
<g id="g20844">
<g id="g20842" opacity="0.5">
<g id="g20840" opacity="0.5">
<g id="g20838" opacity="0.5">
<g id="g20836" opacity="0.5">
<g id="g20834" opacity="0.5">
<path id="path20832" opacity="0.5" d="M32.2086 19.1828C34.9219 15.4428 38.4633 13.3828 40.1446 14.5548C40.0166 14.0415 39.7766 13.6268 39.4059 13.3575C37.7353 12.1455 34.1686 14.2095 31.4406 17.9695C28.7139 21.7281 27.8566 25.7588 29.5273 26.9708C29.5366 26.9775 29.5459 26.9801 29.5553 26.9868C29.1046 25.1881 30.0873 22.1068 32.2086 19.1828" fill="url(#paint14_radial)"/>
</g>
</g>
</g>
</g>
</g>
</g>
</g>
<g id="g20846">
<g id="g20882">
<g id="g20880" opacity="0.5">
<g id="g20878" opacity="0.5">
<g id="g20876" opacity="0.5">
<g id="g20874" opacity="0.5">
<g id="g20872" opacity="0.5">
<path id="path20870" opacity="0.5" d="M44.2233 11.8481C45.1606 11.3841 46.09 11.1841 46.7433 11.2575C46.8753 10.9748 46.9113 10.7094 46.806 10.4948C46.4713 9.82011 44.9713 9.88279 43.4553 10.6348C41.9393 11.3855 40.9806 12.5401 41.3153 13.2148C41.442 13.4721 41.7406 13.6201 42.1446 13.6655C42.4273 13.0575 43.1886 12.3601 44.2233 11.8481" fill="url(#paint15_radial)"/>
</g>
</g>
</g>
</g>
</g>
</g>
</g>
<g id="g20884">
<g id="g20920">
<g id="g20918" opacity="0.5">
<g id="g20916" opacity="0.5">
<g id="g20914" opacity="0.5">
<g id="g20912" opacity="0.5">
<g id="g20910" opacity="0.5">
<path id="path20908" opacity="0.5" d="M31.4979 43.6135C30.3379 42.3068 28.9033 41.6855 28.2939 42.2268C27.6846 42.7668 28.1313 44.2655 29.2913 45.5721C30.4513 46.8788 31.8846 47.5001 32.4939 46.9601C33.1033 46.4188 32.6566 44.9215 31.4979 43.6135ZM44.5139 57.9228C42.9686 57.1068 41.4073 57.0308 41.0273 57.7508C40.6473 58.4708 41.5926 59.7161 43.1379 60.5321C44.6833 61.3468 46.2446 61.4241 46.6246 60.7028C47.0046 59.9828 46.0593 58.7375 44.5139 57.9228ZM38.7886 57.2428C37.7406 58.4988 34.7073 57.6961 32.0126 55.4481C29.3193 53.2015 27.9833 50.3615 29.0313 49.1055C30.0779 47.8495 33.1126 48.6535 35.8059 50.9001C38.5006 53.1468 39.8353 55.9868 38.7886 57.2428" fill="url(#paint16_radial)"/>
</g>
</g>
</g>
</g>
</g>
</g>
</g>
<g id="g20922">
<g id="g20958">
<g id="g20956" opacity="0.5">
<g id="g20954" opacity="0.5">
<g id="g20952" opacity="0.5">
<g id="g20950" opacity="0.5">
<g id="g20948" opacity="0.5">
<path id="path20946" opacity="0.5" d="M32.4939 46.9601C32.6899 46.7855 32.7659 46.5068 32.7553 46.1748C32.0393 46.2428 30.9486 45.6481 30.0259 44.6081C29.2393 43.7214 28.7913 42.7521 28.7686 42.0481C28.5846 42.0654 28.4179 42.1161 28.2939 42.2268C27.6846 42.7668 28.1313 44.2655 29.2913 45.5721C30.4513 46.8788 31.8846 47.5001 32.4939 46.9601" fill="url(#paint17_radial)"/>
</g>
</g>
</g>
</g>
</g>
</g>
</g>
<g id="g20960">
<g id="g20996">
<g id="g20994" opacity="0.5">
<g id="g20992" opacity="0.5">
<g id="g20990" opacity="0.5">
<g id="g20988" opacity="0.5">
<g id="g20986" opacity="0.5">
<path id="path20984" opacity="0.5" d="M43.874 59.5681C42.658 58.9268 41.826 58.0241 41.7046 57.3161C41.3913 57.3868 41.1473 57.5255 41.0273 57.7508C40.6473 58.4708 41.5926 59.7161 43.138 60.5321C44.6833 61.3468 46.2446 61.4241 46.6246 60.7028C46.706 60.5495 46.7153 60.3668 46.682 60.1748C45.994 60.3295 44.9353 60.1281 43.874 59.5681" fill="url(#paint18_radial)"/>
</g>
</g>
</g>
</g>
</g>
</g>
</g>
<g id="g20998">
<g id="g21034">
<g id="g21032" opacity="0.5">
<g id="g21030" opacity="0.5">
<g id="g21028" opacity="0.5">
<g id="g21026" opacity="0.5">
<g id="g21024" opacity="0.5">
<path id="path21022" opacity="0.5" d="M32.7486 54.4854C30.43 52.5508 29.1273 50.1841 29.4753 48.7588C29.3046 48.8508 29.1513 48.9614 29.0313 49.1054C27.9833 50.3614 29.3193 53.2014 32.0126 55.4481C34.7073 57.6961 37.7406 58.4988 38.7886 57.2428C38.934 57.0681 39.0233 56.8561 39.0793 56.6254C37.7753 57.3241 35.1326 56.4734 32.7486 54.4854" fill="url(#paint19_radial)"/>
</g>
</g>
</g>
</g>
</g>
</g>
</g>
<g id="g21036">
<g id="g21100">
<g id="g21098">
<g id="g21096">
<g id="g21094">
<g id="g21092">
<g id="g21090">
<g id="g21088">
<path id="path21086" d="M87.0592 33.6788C88.1792 53.3668 73.1286 70.2361 53.4392 71.3575C33.7512 72.4788 16.8819 57.4268 15.7606 37.7375C14.6392 18.0495 29.6912 1.18013 49.3792 0.0587964C69.0686 -1.06254 85.9379 13.9895 87.0592 33.6788Z" fill="url(#paint20_radial)"/>
</g>
</g>
</g>
</g>
</g>
</g>
</g>
</g>
<g id="g21102">
<g id="g21144">
<g id="g21142" opacity="0.449997">
<g id="g21128" opacity="0.449997">
<g id="g21126" opacity="0.449997">
<g id="g21124" opacity="0.449997">
<g id="g21122" opacity="0.449997">
<path id="path21120" opacity="0.449997" d="M39.6253 19.6385C41.2199 20.8892 40.7133 24.1985 38.4919 27.0305C36.2719 29.8625 33.1786 31.1452 31.5839 29.8945C29.9879 28.6439 30.4959 25.3332 32.7159 22.5012C34.9373 19.6692 38.0306 18.3879 39.6253 19.6385Z" fill="#F4A400"/>
</g>
</g>
</g>
</g>
<g id="g21140" opacity="0.449997">
<g id="g21138" opacity="0.449997">
<g id="g21136" opacity="0.449997">
<g id="g21134" opacity="0.449997">
<path id="path21132" opacity="0.449997" d="M47.4106 13.9648C48.0266 14.9861 47.0572 16.6995 45.2439 17.7941C43.4319 18.8875 41.4639 18.9461 40.8479 17.9261C40.2319 16.9048 41.2012 15.1915 43.0132 14.0968C44.8266 13.0035 46.7946 12.9435 47.4106 13.9648Z" fill="#F4A400"/>
</g>
</g>
</g>
</g>
</g>
</g>
</g>
<g id="g21146">
<path id="path21148" d="M99.9919 6.47157C97.1959 1.78357 84.1479 4.04356 67.2999 11.2809C68.2946 11.9049 69.2279 12.6729 70.1039 13.4996C80.8919 9.54757 88.8813 8.69156 90.8186 11.9409C94.1213 17.4782 78.6413 32.7929 56.2466 46.1476C33.8506 59.5022 13.0186 65.8409 9.71727 60.3049C7.6226 56.7929 13.0893 49.3489 23.0746 40.9662C22.6999 39.8942 22.4666 38.7996 22.3746 37.6916C6.72927 49.6929 -2.38273 60.8662 0.543941 65.7742C4.59194 72.5636 30.1359 64.7916 57.5986 48.4156C85.0599 32.0396 104.04 13.2609 99.9919 6.47157Z" fill="#F4A400"/>
</g>
<g id="g21150">
<g id="g21164">
<g id="g21162" opacity="0.539993">
<g id="g21160" opacity="0.539993">
<path id="path21158" opacity="0.539993" d="M72.2406 10.3222C72.1433 9.98491 72.1366 9.63424 72.1979 9.27691C70.6059 9.89558 68.9726 10.5622 67.2993 11.2809C68.2939 11.9062 69.2273 12.6729 70.1033 13.4996C80.8926 9.54891 88.8819 8.69158 90.8193 11.9409C94.1206 17.4782 78.6419 32.7929 56.2459 46.1476C33.8499 59.5036 13.0179 65.8409 9.71661 60.3049C7.62328 56.7929 13.0886 49.3489 23.0753 40.9662C22.6993 39.8942 22.4673 38.7996 22.3739 37.6916C13.7593 44.3009 7.13128 50.6556 3.39795 55.8542C7.97262 51.0996 15.9126 43.1129 16.2473 44.5902C16.7166 46.6702 -1.71272 59.1329 10.8166 63.3356C23.3486 67.5396 54.2259 48.5729 66.0886 41.0502C77.9513 33.5262 92.1406 20.6022 94.8126 12.0222C97.4846 3.44224 73.3353 14.1236 72.2406 10.3222Z" fill="#F4A400"/>
</g>
</g>
</g>
</g>
<g id="g21166">
<g id="g21208">
<g id="g21206">
<g id="g21192">
<g id="g21190">
<g id="g21188" opacity="0.539993">
<g id="g21186" opacity="0.539993">
<path id="path21184" opacity="0.539993" d="M10.8122 64.8352C10.7842 64.9658 10.2656 64.9738 9.51356 65.1018C8.75356 65.2098 7.75756 65.4752 6.59489 65.5112C5.44822 65.5418 4.17756 65.2032 3.39089 64.4565C2.99889 64.0978 2.76422 63.6952 2.63489 63.4112C2.50422 63.1232 2.46555 62.9485 2.46555 62.9485C2.46555 62.9485 2.42289 62.7738 2.39889 62.4725C2.37489 62.1712 2.39356 61.7512 2.48822 61.2938C2.67222 60.3738 3.19355 59.3445 3.73489 58.4445C4.81622 56.5845 6.20022 54.9552 6.41222 55.1045C6.62156 55.2472 5.65222 57.1005 4.91622 59.0218C4.52289 59.9938 4.22289 60.9138 4.18022 61.5592C4.13089 62.2018 4.26822 62.5032 4.26822 62.5032C4.26822 62.5032 4.28422 62.8498 4.60555 63.2512C4.91355 63.6618 5.72822 64.0752 6.66956 64.1978C7.60156 64.3285 8.69089 64.2685 9.50289 64.3778C10.3256 64.4712 10.8416 64.7152 10.8122 64.8352Z" fill="#F4A400"/>
</g>
</g>
</g>
</g>
<g id="g21204">
<g id="g21202">
<g id="g21200" opacity="0.539993">
<g id="g21198" opacity="0.539993">
<path id="path21196" opacity="0.539993" d="M92.9246 20.3809C92.7326 20.2156 94.774 17.4729 96.3873 14.4996C97.218 13.0116 97.9606 11.5329 98.1086 10.4369C98.202 9.89026 98.1753 9.46226 98.1326 9.15959C98.0886 8.86093 98.0393 8.69959 98.0393 8.69959C98.0393 8.69959 98.014 8.53159 97.922 8.26093C97.8286 7.99159 97.6633 7.61693 97.3353 7.29559C97.0126 6.96893 96.4753 6.67959 95.7766 6.50093C95.082 6.32359 94.2446 6.21826 93.434 6.16626C91.794 6.06626 90.1326 6.26226 88.9046 6.53293C87.674 6.79826 86.8606 7.07959 86.802 6.95559C86.75 6.84893 87.4673 6.33826 88.6913 5.84093C89.9113 5.33959 91.654 4.91826 93.4433 4.85159C94.342 4.82359 95.2206 4.84893 96.098 4.99426C96.9686 5.13826 97.8446 5.47693 98.4753 6.01826C99.114 6.55693 99.4366 7.17559 99.6166 7.59559C99.794 8.02359 99.8486 8.27826 99.8486 8.27826C99.8486 8.27826 99.91 8.53426 99.9446 8.97959C99.978 9.41959 99.9633 10.0756 99.7846 10.7863C99.4553 12.2409 98.4753 13.7849 97.5033 15.1916C95.5486 18.0783 93.1166 20.5543 92.9246 20.3809Z" fill="#F4A400"/>
</g>
</g>
</g>
</g>
</g>
</g>
</g>
</g>
<g id="g20212">
<g id="g20218">
<g id="g20220">
<path id="path20234" d="M55.5586 10.048C39.448 10.9653 27.132 24.7693 28.048 40.88C28.9666 56.9893 42.7706 69.3067 58.88 68.3893C74.992 67.472 87.308 53.668 86.3906 37.5587C85.5053 22.0107 72.624 9.99867 57.2453 10C56.6866 10 56.1226 10.016 55.5586 10.048" fill="url(#paint21_radial)"/>
</g>
</g>
</g>
</g>
<defs>
<radialGradient id="paint0_radial" cx="0" cy="0" r="1" gradientUnits="userSpaceOnUse" gradientTransform="translate(39.1221 20.9372) rotate(56.5547) scale(60.1426)">
<stop stop-color="#FF0077"/>
<stop offset="0.384182" stop-color="#FF0077"/>
<stop offset="0.898496" stop-color="#8244B0"/>
<stop offset="0.942285" stop-color="#8244B0"/>
<stop offset="1" stop-color="#8244B0"/>
</radialGradient>
<radialGradient id="paint1_radial" cx="0" cy="0" r="1" gradientUnits="userSpaceOnUse" gradientTransform="translate(41.3491 29.5287) rotate(56.5547) scale(50.5366)">
<stop stop-color="#FF0077"/>
<stop offset="0.384182" stop-color="#FF0077"/>
<stop offset="0.898496" stop-color="#8244B0"/>
<stop offset="0.942285" stop-color="#8244B0"/>
<stop offset="1" stop-color="#8244B0"/>
</radialGradient>
<radialGradient id="paint2_radial" cx="0" cy="0" r="1" gradientUnits="userSpaceOnUse" gradientTransform="translate(40.9813 -13.1131) rotate(41.7412) scale(39.6185)">
<stop stop-color="#FF0077"/>
<stop offset="0.384182" stop-color="#FF0077"/>
<stop offset="0.898496" stop-color="#8244B0"/>
<stop offset="0.942285" stop-color="#8244B0"/>
<stop offset="1" stop-color="#8244B0"/>
</radialGradient>
<radialGradient id="paint3_radial" cx="0" cy="0" r="1" gradientUnits="userSpaceOnUse" gradientTransform="translate(45.0597 12.7986) rotate(41.7412) scale(13.321)">
<stop stop-color="#FF0077"/>
<stop offset="0.384182" stop-color="#FF0077"/>
<stop offset="0.898496" stop-color="#8244B0"/>
<stop offset="0.942285" stop-color="#8244B0"/>
<stop offset="1" stop-color="#8244B0"/>
</radialGradient>
<radialGradient id="paint4_radial" cx="0" cy="0" r="1" gradientUnits="userSpaceOnUse" gradientTransform="translate(49.7041 -5.68321) rotate(41.7413) scale(27.6108)">
<stop stop-color="#FF0077"/>
<stop offset="0.384182" stop-color="#FF0077"/>
<stop offset="0.898496" stop-color="#8244B0"/>
<stop offset="0.942285" stop-color="#8244B0"/>
<stop offset="1" stop-color="#8244B0"/>
</radialGradient>
<radialGradient id="paint5_radial" cx="0" cy="0" r="1" gradientUnits="userSpaceOnUse" gradientTransform="translate(47.0121 31.7947) rotate(59.0796) scale(17.9913 29.1148)">
<stop stop-color="#FF0077"/>
<stop offset="0.384182" stop-color="#FF0077"/>
<stop offset="0.898496" stop-color="#8244B0"/>
<stop offset="0.942285" stop-color="#8244B0"/>
<stop offset="1" stop-color="#8244B0"/>
</radialGradient>
<radialGradient id="paint6_radial" cx="0" cy="0" r="1" gradientUnits="userSpaceOnUse" gradientTransform="translate(46.0062 40.922) rotate(41.7413) scale(18.9067)">
<stop stop-color="#FF0077"/>
<stop offset="0.384182" stop-color="#FF0077"/>
<stop offset="0.898496" stop-color="#8244B0"/>
<stop offset="0.942285" stop-color="#8244B0"/>
<stop offset="1" stop-color="#8244B0"/>
</radialGradient>
<radialGradient id="paint7_radial" cx="0" cy="0" r="1" gradientUnits="userSpaceOnUse" gradientTransform="translate(44.0309 53.3478) rotate(-26.5794) scale(38.6153)">
<stop stop-color="#FF0077"/>
<stop offset="0.384182" stop-color="#FF0077"/>
<stop offset="0.898496" stop-color="#8244B0"/>
<stop offset="0.942285" stop-color="#8244B0"/>
<stop offset="1" stop-color="#8244B0"/>
</radialGradient>
<radialGradient id="paint8_radial" cx="0" cy="0" r="1" gradientUnits="userSpaceOnUse" gradientTransform="translate(72.6001 7.78897) rotate(41.7412) scale(18.9547)">
<stop stop-color="#FF0077"/>
<stop offset="0.384182" stop-color="#FF0077"/>
<stop offset="0.898496" stop-color="#8244B0"/>
<stop offset="0.942285" stop-color="#8244B0"/>
<stop offset="1" stop-color="#8244B0"/>
</radialGradient>
<radialGradient id="paint9_radial" cx="0" cy="0" r="1" gradientUnits="userSpaceOnUse" gradientTransform="translate(68.48 19.4555) rotate(41.7412) scale(13.1098)">
<stop stop-color="#FF0077"/>
<stop offset="0.384182" stop-color="#FF0077"/>
<stop offset="0.898496" stop-color="#8244B0"/>
<stop offset="0.942285" stop-color="#8244B0"/>
<stop offset="1" stop-color="#8244B0"/>
</radialGradient>
<radialGradient id="paint10_radial" cx="0" cy="0" r="1" gradientUnits="userSpaceOnUse" gradientTransform="translate(66.9356 43.4106) rotate(41.7412) scale(11.0932)">
<stop stop-color="#FF0077"/>
<stop offset="0.384182" stop-color="#FF0077"/>
<stop offset="0.898496" stop-color="#8244B0"/>
<stop offset="0.942285" stop-color="#8244B0"/>
<stop offset="1" stop-color="#8244B0"/>
</radialGradient>
<radialGradient id="paint11_radial" cx="0" cy="0" r="1" gradientUnits="userSpaceOnUse" gradientTransform="translate(67.069 4.89609) rotate(41.7412) scale(36.3364)">
<stop stop-color="#FF0077"/>
<stop offset="0.384182" stop-color="#FF0077"/>
<stop offset="0.898496" stop-color="#8244B0"/>
<stop offset="0.942285" stop-color="#8244B0"/>
<stop offset="1" stop-color="#8244B0"/>
</radialGradient>
<radialGradient id="paint12_radial" cx="0" cy="0" r="1" gradientUnits="userSpaceOnUse" gradientTransform="translate(7.09662 25.8397) rotate(-9.03488) scale(34.5827)">
<stop stop-color="#FF0077"/>
<stop offset="0.384182" stop-color="#FF0077"/>
<stop offset="0.898496" stop-color="#8244B0"/>
<stop offset="0.942285" stop-color="#8244B0"/>
<stop offset="1" stop-color="#8244B0"/>
</radialGradient>
<radialGradient id="paint13_radial" cx="0" cy="0" r="1" gradientUnits="userSpaceOnUse" gradientTransform="translate(23.3311 17.6398) rotate(41.7412) scale(12.8381)">
<stop stop-color="#FF0077"/>
<stop offset="0.384182" stop-color="#FF0077"/>
<stop offset="0.898496" stop-color="#8244B0"/>
<stop offset="0.942285" stop-color="#8244B0"/>
<stop offset="1" stop-color="#8244B0"/>
</radialGradient>
<radialGradient id="paint14_radial" cx="0" cy="0" r="1" gradientUnits="userSpaceOnUse" gradientTransform="translate(24.6964 -10.1864) rotate(41.7412) scale(32.2086)">
<stop stop-color="#FF0077"/>
<stop offset="0.384182" stop-color="#FF0077"/>
<stop offset="0.898496" stop-color="#8244B0"/>
<stop offset="0.942285" stop-color="#8244B0"/>
<stop offset="1" stop-color="#8244B0"/>
</radialGradient>
<radialGradient id="paint15_radial" cx="0" cy="0" r="1" gradientUnits="userSpaceOnUse" gradientTransform="translate(39.8126 4.24521) rotate(41.7412) scale(9.38928)">
<stop stop-color="#FF0077"/>
<stop offset="0.384182" stop-color="#FF0077"/>
<stop offset="0.898496" stop-color="#8244B0"/>
<stop offset="0.942285" stop-color="#8244B0"/>
<stop offset="1" stop-color="#8244B0"/>
</radialGradient>
<radialGradient id="paint16_radial" cx="0" cy="0" r="1" gradientUnits="userSpaceOnUse" gradientTransform="translate(35.7581 26.6329) rotate(86.1936) scale(30.7982 32.3028)">
<stop stop-color="#FF0077"/>
<stop offset="0.384182" stop-color="#FF0077"/>
<stop offset="0.898496" stop-color="#8244B0"/>
<stop offset="0.942285" stop-color="#8244B0"/>
<stop offset="1" stop-color="#8244B0"/>
</radialGradient>
<radialGradient id="paint17_radial" cx="0" cy="0" r="1" gradientUnits="userSpaceOnUse" gradientTransform="translate(26.6933 32.7712) rotate(41.7413) scale(12.5707)">
<stop stop-color="#FF0077"/>
<stop offset="0.384182" stop-color="#FF0077"/>
<stop offset="0.898496" stop-color="#8244B0"/>
<stop offset="0.942285" stop-color="#8244B0"/>
<stop offset="1" stop-color="#8244B0"/>
</radialGradient>
<radialGradient id="paint18_radial" cx="0" cy="0" r="1" gradientUnits="userSpaceOnUse" gradientTransform="translate(39.5671 50.1523) rotate(41.7412) scale(10.5788)">
<stop stop-color="#FF0077"/>
<stop offset="0.384182" stop-color="#FF0077"/>
<stop offset="0.898496" stop-color="#8244B0"/>
<stop offset="0.942285" stop-color="#8244B0"/>
<stop offset="1" stop-color="#8244B0"/>
</radialGradient>
<radialGradient id="paint19_radial" cx="0" cy="0" r="1" gradientUnits="userSpaceOnUse" gradientTransform="translate(25.9903 32.0336) rotate(41.7413) scale(23.2873)">
<stop stop-color="#FF0077"/>
<stop offset="0.384182" stop-color="#FF0077"/>
<stop offset="0.898496" stop-color="#8244B0"/>
<stop offset="0.942285" stop-color="#8244B0"/>
<stop offset="1" stop-color="#8244B0"/>
</radialGradient>
<radialGradient id="paint20_radial" cx="0" cy="0" r="1" gradientUnits="userSpaceOnUse" gradientTransform="translate(51.592 34.653) rotate(56.5547) scale(36.0232)">
<stop stop-color="#F4A400"/>
<stop offset="0.0518519" stop-color="#F4A400"/>
<stop offset="0.809505" stop-color="#F4A400"/>
<stop offset="1" stop-color="#ED29B9"/>
</radialGradient>
<radialGradient id="paint21_radial" cx="0" cy="0" r="1" gradientUnits="userSpaceOnUse" gradientTransform="translate(44.6187 19.0324) rotate(56.5547) scale(64.2441)">
<stop stop-color="#FF0077"/>
<stop offset="0.384182" stop-color="#FF0077"/>
<stop offset="0.898496" stop-color="#8244B0"/>
<stop offset="0.942285" stop-color="#8244B0"/>
<stop offset="1" stop-color="#8244B0"/>
</radialGradient>
</defs>
</svg>
