<svg width="107" height="107" viewBox="0 0 107 107" fill="none" xmlns="http://www.w3.org/2000/svg">
<g id="planet4">
<g id="g16120">
<g id="g16122">
<g id="g16128">
<g id="g16130">
<path id="path16140" d="M0.0012207 53.4977C0.0012207 83.0431 23.9519 106.995 53.4986 106.995C62.5386 106.995 71.0546 104.752 78.5212 100.794V6.20173C71.0546 2.24306 62.5386 0.000392933 53.4986 0.000392933C23.9519 0.000392933 0.0012207 23.9524 0.0012207 53.4977" fill="url(#paint0_radial)"/>
</g>
</g>
</g>
</g>
<g id="g16150">
<g id="g16182">
<g id="g16180">
<g id="g16178">
<g id="g16176">
<g id="g16174">
<g id="g16172">
<path id="path16170" d="M106.995 53.4977C106.995 83.0431 83.044 106.995 53.4973 106.995C23.952 106.995 0 83.0431 0 53.4977C0 23.9511 23.952 0.000392933 53.4973 0.000392933C83.044 0.000392933 106.995 23.9511 106.995 53.4977Z" fill="url(#paint1_radial)"/>
</g>
</g>
</g>
</g>
</g>
</g>
</g>
<g id="g16184">
<g id="g16220">
<g id="g16218">
<g id="g16216">
<g id="g16214">
<g id="g16212">
<g id="g16210">
<path id="path16208" d="M76.1374 74.047C76.5734 73.3177 76.98 72.499 76.8707 71.655C76.6587 70.0057 74.676 69.2377 73.012 69.2164C69.0667 69.1657 65.448 71.3284 62.2934 73.6991C59.1387 76.0697 56.1147 78.7724 52.4014 80.1084C48.6894 81.4457 43.976 81.023 41.5533 77.9084C39.0107 74.6417 39.8707 69.8457 38.136 66.087C37.9027 65.5817 37.6054 65.079 37.1347 64.783C35.9907 64.0644 34.5307 64.8711 33.416 65.6337C27.0693 69.9697 19.992 73.5804 12.352 74.4297C9.63201 74.7324 6.83069 74.6284 4.12402 74.1164C8.31869 84.1497 15.488 92.6231 24.5214 98.4577C24.6667 97.8537 24.8494 97.2604 25.1174 96.6897C27.964 90.631 35.972 89.6257 42.6467 89.1217C49 88.643 55.4054 87.8537 61.368 85.6071C67.3294 83.3591 72.8707 79.5177 76.1374 74.047" fill="url(#paint2_radial)"/>
</g>
</g>
</g>
</g>
</g>
</g>
</g>
<g id="g16222">
<g id="g16258">
<g id="g16256">
<g id="g16254">
<g id="g16252">
<g id="g16250">
<g id="g16248">
<path id="path16246" d="M106.596 59.9337C102.989 60.0284 99.4493 60.2857 96.48 62.207C91.5426 65.4044 90.1493 72.1391 90.924 77.9697C91.1267 79.4951 91.432 81.119 90.7893 82.519C90.396 83.3777 89.6853 84.0457 88.968 84.6617C82.192 90.4777 73.536 93.5284 65.8066 97.9991C62.4253 99.9551 58.8493 102.907 58.828 106.728C83.7467 104.263 103.624 84.699 106.596 59.9337" fill="url(#paint3_radial)"/>
</g>
</g>
</g>
</g>
</g>
</g>
</g>
<g id="g16260">
<g id="g16296">
<g id="g16294">
<g id="g16292">
<g id="g16290">
<g id="g16288">
<g id="g16286">
<path id="path16284" d="M0 53.4977C0 53.8084 0.0186738 54.1137 0.0240072 54.4231C0.896007 55.0764 1.85864 55.6044 2.89331 55.9591C5.24798 56.7658 7.96264 56.8217 9.87598 58.4124C10.92 59.2804 11.6027 60.5204 12.6373 61.3991C15.2147 63.5857 19.3307 62.8777 21.96 60.7551C24.5907 58.6324 26.104 55.4617 27.5853 52.4231C29.0667 49.3857 30.7053 46.2484 33.4747 44.3098C35.7653 42.7071 38.7226 42.0897 41.4626 42.6444C43.8906 43.1337 46.2186 44.4977 48.6746 44.1791C51.8733 43.7644 54.1027 40.4431 54.2133 37.2204C54.3227 33.9964 52.7827 30.9404 50.9347 28.2964C50.0227 26.9924 49.0107 25.7204 48.4773 24.2204C47.036 20.1697 49.4587 15.7457 52.4413 12.6497C55.4227 9.55506 59.112 7.00174 61.148 3.21507C61.572 2.42707 61.8933 1.56176 62.0147 0.683089C59.24 0.239089 56.3973 0.000390295 53.4973 0.000390295C23.952 0.000390295 0 23.9511 0 53.4977" fill="url(#paint4_radial)"/>
</g>
</g>
</g>
</g>
</g>
</g>
</g>
<g id="g16298">
<g id="g16334">
<g id="g16332">
<g id="g16330">
<g id="g16328">
<g id="g16326">
<g id="g16324">
<path id="path16322" d="M75.5667 13.3337C76.5307 16.547 78.5334 19.3324 79.9747 22.3617C81.4174 25.3911 82.2774 29.0191 80.8508 32.0551C79.1041 35.7724 74.7214 37.2404 70.9881 38.9524C67.6348 40.4884 64.5001 42.4964 61.7027 44.9004C58.6041 47.5644 55.7334 51.3244 56.4267 55.351C57.1534 59.5657 61.4801 62.1751 65.6134 63.2697C68.2161 63.9591 71.0907 64.2524 73.5187 63.0884C78.1187 60.8817 79.3948 54.4084 83.9881 52.1897C87.6788 50.4084 92.0067 52.0297 96.092 52.3591C99.8387 52.6631 103.544 51.7657 106.872 50.0404C105.585 29.8884 93.1454 12.7791 75.6548 4.80705C74.8201 7.57372 74.7334 10.5604 75.5667 13.3337" fill="url(#paint5_radial)"/>
</g>
</g>
</g>
</g>
</g>
</g>
</g>
<g id="g16336">
<g id="g16368">
<g id="g16366" opacity="0.25">
<g id="g16364" opacity="0.25">
<g id="g16362" opacity="0.25">
<g id="g16360" opacity="0.25">
<g id="g16358" opacity="0.25">
<path id="path16356" opacity="0.25" d="M88.4519 13.0177C89.4852 17.1684 90.0413 21.5084 90.0413 25.9791C90.0413 55.5244 66.0892 79.4764 36.5439 79.4764C23.1786 79.4764 10.9679 74.5631 1.59058 66.4591C7.38524 89.7404 28.4226 106.995 53.4972 106.995C83.0439 106.995 106.995 83.0431 106.995 53.4977C106.995 37.3177 99.8026 22.8271 88.4519 13.0177" fill="url(#paint6_radial)"/>
</g>
</g>
</g>
</g>
</g>
</g>
</g>
<g id="g16370">
<g id="g16406">
<g id="g16404" opacity="0.339996">
<g id="g16402" opacity="0.339996">
<g id="g16400" opacity="0.339996">
<g id="g16398" opacity="0.339996">
<g id="g16396" opacity="0.339996">
<path id="path16394" opacity="0.339996" d="M97.768 31.099C99.5626 36.2337 100.544 41.7497 100.544 47.4991C100.544 74.9924 78.2573 97.2791 50.764 97.2791C31.5293 97.2791 14.856 86.3644 6.56934 70.3951C13.3613 89.8044 31.8253 103.73 53.5533 103.73C81.0466 103.73 103.333 81.443 103.333 53.9497C103.333 45.707 101.316 37.9417 97.768 31.099Z" fill="url(#paint7_radial)"/>
</g>
</g>
</g>
</g>
</g>
</g>
</g>
<g id="g16408">
<g id="g16422">
<g id="g16420" opacity="0.449997">
<g id="g16418" opacity="0.449997">
<path id="path16416" opacity="0.449997" d="M3.3234 58.244C3.3234 28.6987 27.2754 4.74666 56.8207 4.74666C73.9447 4.74666 89.1767 12.8013 98.9687 25.3187C89.5327 10.124 72.7007 -2.5756e-06 53.4981 -2.5756e-06C23.9527 -2.5756e-06 0.000732422 23.952 0.000732422 53.4973C0.000732422 65.9187 4.24606 77.3427 11.3487 86.4227C6.26606 78.2387 3.3234 68.5867 3.3234 58.244Z" fill="#F4A400"/>
</g>
</g>
</g>
</g>
<g id="g16424">
<g id="g16456">
<g id="g16454">
<g id="g16452">
<g id="g16450">
<g id="g16448">
<g id="g16446">
<path id="path16444" d="M7.90142 64.2644C6.30676 57.9151 8.80676 48.2978 10.0854 43.6778C13.0974 32.7884 19.3427 23.0124 28.4454 16.2257C52.2454 -1.51959 79.6494 11.4244 86.9281 19.3564C94.2067 27.2897 85.6481 35.8498 72.4961 35.6404C59.3427 35.4324 46.4001 35.2231 38.8841 41.9044C31.3681 48.5844 31.9947 65.4951 21.9734 69.0431C18.6574 70.2178 13.8628 71.3471 10.7414 68.9938C9.29076 67.9004 8.39742 66.2404 7.90142 64.2644Z" fill="url(#paint8_radial)"/>
</g>
</g>
</g>
</g>
</g>
</g>
</g>
</g>
<defs>
<radialGradient id="paint0_radial" cx="0" cy="0" r="1" gradientUnits="userSpaceOnUse" gradientTransform="translate(45.2031 2.0068) rotate(62.1245) scale(156.884)">
<stop stop-color="#5223A0"/>
<stop offset="0.962963" stop-color="#000228"/>
<stop offset="1" stop-color="#000228"/>
</radialGradient>
<radialGradient id="paint1_radial" cx="0" cy="0" r="1" gradientUnits="userSpaceOnUse" gradientTransform="translate(45.2032 2.00681) rotate(62.1245) scale(156.884)">
<stop stop-color="#5223A0"/>
<stop offset="0.962963" stop-color="#000228"/>
<stop offset="1" stop-color="#000228"/>
</radialGradient>
<radialGradient id="paint2_radial" cx="0" cy="0" r="1" gradientUnits="userSpaceOnUse" gradientTransform="translate(32.1357 16.81) rotate(54.8215) scale(82.4885)">
<stop stop-color="#FF0077"/>
<stop offset="0.384182" stop-color="#FF0077"/>
<stop offset="0.898496" stop-color="#8244B0"/>
<stop offset="0.942285" stop-color="#8244B0"/>
<stop offset="1" stop-color="#8244B0"/>
</radialGradient>
<radialGradient id="paint3_radial" cx="0" cy="0" r="1" gradientUnits="userSpaceOnUse" gradientTransform="translate(32.1356 16.81) rotate(54.8215) scale(82.5523)">
<stop stop-color="#FF0077"/>
<stop offset="0.384182" stop-color="#FF0077"/>
<stop offset="0.898496" stop-color="#8244B0"/>
<stop offset="0.942285" stop-color="#8244B0"/>
<stop offset="1" stop-color="#8244B0"/>
</radialGradient>
<radialGradient id="paint4_radial" cx="0" cy="0" r="1" gradientUnits="userSpaceOnUse" gradientTransform="translate(32.1356 16.81) rotate(54.8215) scale(82.4884)">
<stop stop-color="#FF0077"/>
<stop offset="0.384182" stop-color="#FF0077"/>
<stop offset="0.898496" stop-color="#8244B0"/>
<stop offset="0.942285" stop-color="#8244B0"/>
<stop offset="1" stop-color="#8244B0"/>
</radialGradient>
<radialGradient id="paint5_radial" cx="0" cy="0" r="1" gradientUnits="userSpaceOnUse" gradientTransform="translate(32.1357 16.81) rotate(54.8215) scale(82.4885)">
<stop stop-color="#FF0077"/>
<stop offset="0.384182" stop-color="#FF0077"/>
<stop offset="0.898496" stop-color="#8244B0"/>
<stop offset="0.942285" stop-color="#8244B0"/>
<stop offset="1" stop-color="#8244B0"/>
</radialGradient>
<radialGradient id="paint6_radial" cx="0" cy="0" r="1" gradientUnits="userSpaceOnUse" gradientTransform="translate(46.1213 14.7797) rotate(62.1245) scale(142.296)">
<stop stop-color="#5223A0"/>
<stop offset="0.962963" stop-color="#000228"/>
<stop offset="1" stop-color="#000228"/>
</radialGradient>
<radialGradient id="paint7_radial" cx="0" cy="0" r="1" gradientUnits="userSpaceOnUse" gradientTransform="translate(47.4497 32.461) rotate(62.1245) scale(116.632)">
<stop stop-color="#FF0077"/>
<stop offset="0.384182" stop-color="#FF0077"/>
<stop offset="0.898496" stop-color="#8244B0"/>
<stop offset="0.942285" stop-color="#8244B0"/>
<stop offset="1" stop-color="#8244B0"/>
</radialGradient>
<radialGradient id="paint8_radial" cx="0" cy="0" r="1" gradientUnits="userSpaceOnUse" gradientTransform="translate(42.1167 8.50601) rotate(62.1245) scale(100.427)">
<stop stop-color="#5223A0"/>
<stop offset="0.962963" stop-color="#000228"/>
<stop offset="1" stop-color="#000228"/>
</radialGradient>
</defs>
</svg>
