<svg width="84" height="58" viewBox="0 0 84 58" fill="none" xmlns="http://www.w3.org/2000/svg">
<g id="planet3">
<g id="g18214">
<g id="g18278">
<g id="g18276">
<g id="g18274">
<g id="g18272">
<g id="g18270">
<g id="g18268">
<g id="g18266">
<path id="path18264" d="M71.6001 28.8467C71.6001 44.7773 58.6854 57.692 42.7548 57.692C26.8228 57.692 13.9081 44.7773 13.9081 28.8467C13.9081 12.9147 26.8228 -6.73382e-06 42.7548 -6.73382e-06C58.6854 -6.73382e-06 71.6001 12.9147 71.6001 28.8467" fill="url(#paint0_radial)"/>
</g>
</g>
</g>
</g>
</g>
</g>
</g>
</g>
<g id="g18282">
<g id="g18288">
<g id="g18290">
<path id="path18304" d="M19.1509 28.8453C19.1509 41.8826 29.7175 52.4493 42.7549 52.4493C55.7896 52.4493 66.3589 41.8826 66.3589 28.8453C66.3589 15.8106 55.7896 5.2413 42.7549 5.2413C29.7175 5.2413 19.1509 15.8106 19.1509 28.8453Z" fill="url(#paint1_radial)"/>
</g>
</g>
</g>
<g id="g18306">
<g id="g18308">
<g id="g18314">
<g id="g18328">
<g id="g18326" opacity="0.449997">
<g id="g18324" opacity="0.449997">
<path id="path18322" opacity="0.449997" d="M20.2555 30.0521C20.2555 17.0161 30.8235 6.4481 43.8595 6.4481C50.4381 6.4481 56.3861 9.14143 60.6661 13.4841C56.3368 8.44143 49.9208 5.24276 42.7541 5.24276C29.7181 5.24276 19.1501 15.8094 19.1501 28.8468C19.1501 35.3041 21.7461 41.1534 25.9475 45.4148C22.4021 41.2854 20.2555 35.9214 20.2555 30.0521Z" fill="#F4A400"/>
</g>
</g>
</g>
</g>
<g id="g18330">
<g id="g18344">
<g id="g18342" opacity="0.449997">
<g id="g18340" opacity="0.449997">
<path id="path18338" opacity="0.449997" d="M28.8338 41.5985C28.8338 30.0412 38.2031 20.6718 49.7605 20.6718C55.4085 20.6718 60.5298 22.9132 64.2938 26.5492C62.6618 16.6185 54.0418 9.04115 43.6498 9.04115C32.0925 9.04115 22.7231 18.4105 22.7231 29.9678C22.7231 35.8785 25.1765 41.2118 29.1165 45.0172C28.9338 43.9038 28.8338 42.7638 28.8338 41.5985Z" fill="#F4A400"/>
</g>
</g>
</g>
</g>
<g id="g18346">
<g id="g18382">
<g id="g18380" opacity="0.5">
<g id="g18378" opacity="0.5">
<g id="g18376" opacity="0.5">
<g id="g18374" opacity="0.5">
<g id="g18372" opacity="0.5">
<path id="path18370" opacity="0.5" d="M57.4147 10.3546C58.0627 12.404 58.4134 14.584 58.4134 16.8453C58.4134 28.7386 48.7721 38.3813 36.8787 38.3813C29.5281 38.3813 23.0414 34.696 19.1561 29.076C19.2801 42.0053 29.7947 52.4506 42.7547 52.4506C55.7907 52.4506 66.3587 41.8826 66.3587 28.8466C66.3587 21.352 62.8614 14.6786 57.4147 10.3546" fill="url(#paint2_radial)"/>
</g>
</g>
</g>
</g>
</g>
</g>
</g>
<g id="g18384">
<g id="g18420">
<g id="g18418" opacity="0.5">
<g id="g18416" opacity="0.5">
<g id="g18414" opacity="0.5">
<g id="g18412" opacity="0.5">
<g id="g18410" opacity="0.5">
<path id="path18408" opacity="0.5" d="M62.5094 18.7586C63.3134 21.0573 63.7547 23.5266 63.7547 26.0999C63.7547 38.3906 53.7921 48.3546 41.5014 48.3546C32.9147 48.3546 25.4707 43.488 21.7614 36.3653C24.8027 45.0306 33.0494 51.2466 42.7547 51.2466C55.0454 51.2466 65.0081 41.2826 65.0081 28.992C65.0081 25.3 64.1014 21.8226 62.5094 18.7586Z" fill="url(#paint3_radial)"/>
</g>
</g>
</g>
</g>
</g>
</g>
</g>
<g id="g18422">
<g id="g18458">
<g id="g18456" opacity="0.5">
<g id="g18454" opacity="0.5">
<g id="g18452" opacity="0.5">
<g id="g18450" opacity="0.5">
<g id="g18448" opacity="0.5">
<path id="path18446" opacity="0.5" d="M43.5094 17.6333C41.9054 16.9986 40.2347 17.4186 39.7774 18.572C39.3201 19.7253 40.2507 21.176 41.8547 21.812C43.4587 22.4466 45.1294 22.0266 45.5867 20.8733C46.044 19.72 45.1134 18.2693 43.5094 17.6333ZM58.188 17.8706C57.1947 20.38 53.5601 21.2933 50.0721 19.912C46.5841 18.5306 44.5614 15.376 45.5547 12.8666C46.5494 10.3573 50.1827 9.44397 53.6707 10.8253C57.16 12.208 59.1827 15.3626 58.188 17.8706Z" fill="url(#paint4_radial)"/>
</g>
</g>
</g>
</g>
</g>
</g>
</g>
<g id="g18460">
<g id="g18496">
<g id="g18494" opacity="0.5">
<g id="g18492" opacity="0.5">
<g id="g18490" opacity="0.5">
<g id="g18488" opacity="0.5">
<g id="g18486" opacity="0.5">
<path id="path18484" opacity="0.5" d="M43.5094 17.6333C41.9054 16.9986 40.2347 17.4186 39.7774 18.572C39.7081 18.7453 39.6814 18.9253 39.6721 19.108C40.3747 18.396 41.7174 18.2013 43.0267 18.72C44.3894 19.26 45.2561 20.388 45.2081 21.4226C45.3667 21.2626 45.5027 21.0853 45.5867 20.8733C46.0441 19.72 45.1134 18.2693 43.5094 17.6333" fill="url(#paint5_radial)"/>
</g>
</g>
</g>
</g>
</g>
</g>
</g>
<g id="g18498">
<g id="g18534">
<g id="g18532" opacity="0.5">
<g id="g18530" opacity="0.5">
<g id="g18528" opacity="0.5">
<g id="g18526" opacity="0.5">
<g id="g18524" opacity="0.5">
<path id="path18522" opacity="0.5" d="M53.6707 10.8253C50.1827 9.44397 46.5494 10.3573 45.5547 12.8666C45.4974 13.0146 45.4507 13.164 45.4134 13.3146C46.7321 11.3026 50.016 10.656 53.188 11.9133C56.472 13.2133 58.4547 16.084 57.8467 18.5093C57.9787 18.3093 58.0974 18.0986 58.188 17.8706C59.1827 15.3626 57.16 12.208 53.6707 10.8253" fill="url(#paint6_radial)"/>
</g>
</g>
</g>
</g>
</g>
</g>
</g>
<g id="g18536">
<g id="g18572">
<g id="g18570" opacity="0.5">
<g id="g18568" opacity="0.5">
<g id="g18566" opacity="0.5">
<g id="g18564" opacity="0.5">
<g id="g18562" opacity="0.5">
<path id="path18560" opacity="0.5" d="M50.4894 43.7133C50.34 45.8173 47.8467 47.3546 44.9214 47.148C41.9947 46.9413 39.744 45.0666 39.8934 42.9626C40.0427 40.8573 42.5347 39.32 45.4614 39.5266C48.3867 39.7346 50.6387 41.608 50.4894 43.7133" fill="url(#paint7_radial)"/>
</g>
</g>
</g>
</g>
</g>
</g>
</g>
<g id="g18574">
<g id="g18610">
<g id="g18608" opacity="0.5">
<g id="g18606" opacity="0.5">
<g id="g18604" opacity="0.5">
<g id="g18602" opacity="0.5">
<g id="g18600" opacity="0.5">
<path id="path18598" opacity="0.5" d="M50.0601 41.9946C50.0654 42.1013 50.0681 42.2093 50.0601 42.3173C49.9108 44.4226 47.4174 45.96 44.4921 45.7533C42.4054 45.6053 40.6681 44.608 39.8934 43.2853C39.9828 45.256 42.1468 46.952 44.9214 47.148C47.8468 47.3546 50.3401 45.8173 50.4894 43.7133C50.5321 43.1093 50.3721 42.5266 50.0601 41.9946Z" fill="url(#paint8_radial)"/>
</g>
</g>
</g>
</g>
</g>
</g>
</g>
<g id="g18612">
<g id="g18648">
<g id="g18646" opacity="0.5">
<g id="g18644" opacity="0.5">
<g id="g18642" opacity="0.5">
<g id="g18640" opacity="0.5">
<g id="g18638" opacity="0.5">
<path id="path18636" opacity="0.5" d="M58.0374 26.4973C57.4627 27.7386 57.4441 28.9506 57.9961 29.2066C58.5467 29.4613 59.4587 28.6626 60.0334 27.4226C60.608 26.1813 60.6267 24.9693 60.0747 24.7146C59.5241 24.4586 58.6121 25.2573 58.0374 26.4973ZM60.8427 22.9773C61.196 24.8373 62.1534 26.2173 62.9801 26.0599C63.8067 25.9026 64.1894 24.268 63.8361 22.4066C63.4827 20.5466 62.5254 19.1666 61.6987 19.3239C60.872 19.4813 60.488 21.116 60.8427 22.9773ZM56.7334 43.2586C55.7054 44.1586 55.196 45.2599 55.596 45.7173C55.996 46.1733 57.1547 45.8133 58.1827 44.9133C59.2107 44.0119 59.72 42.912 59.32 42.4546C58.92 41.9973 57.7614 42.3573 56.7334 43.2586ZM63.1147 27.584C64.6654 28.2 64.7974 31.5266 63.412 35.0133C62.0254 38.4999 59.6454 40.8266 58.096 40.2106C56.5467 39.5946 56.4134 36.2693 57.8001 32.7826C59.1854 29.296 61.5654 26.968 63.1147 27.584Z" fill="url(#paint9_radial)"/>
</g>
</g>
</g>
</g>
</g>
</g>
</g>
<g id="g18650">
<g id="g18686">
<g id="g18684" opacity="0.5">
<g id="g18682" opacity="0.5">
<g id="g18680" opacity="0.5">
<g id="g18678" opacity="0.5">
<g id="g18676" opacity="0.5">
<path id="path18674" opacity="0.5" d="M62.8814 22.2026C63.2094 23.9253 62.9001 25.4386 62.1974 25.7813C62.4561 25.996 62.7241 26.1093 62.9801 26.06C63.8068 25.9026 64.1894 24.268 63.8361 22.4066C63.4828 20.5466 62.5254 19.1666 61.6987 19.324C61.6374 19.336 61.5841 19.3706 61.5267 19.3986C62.1054 19.8773 62.6374 20.9186 62.8814 22.2026Z" fill="url(#paint10_radial)"/>
</g>
</g>
</g>
</g>
</g>
</g>
</g>
<g id="g18688">
<g id="g18724">
<g id="g18722" opacity="0.5">
<g id="g18720" opacity="0.5">
<g id="g18718" opacity="0.5">
<g id="g18716" opacity="0.5">
<g id="g18714" opacity="0.5">
<path id="path18712" opacity="0.5" d="M59.0801 27.2173C58.7054 28.0266 58.1881 28.6399 57.7201 28.9039C57.7868 29.0413 57.8748 29.1506 57.9961 29.2066C58.5468 29.4613 59.4587 28.6626 60.0334 27.4226C60.6081 26.1813 60.6267 24.9693 60.0747 24.7146C59.8827 24.6253 59.6467 24.6706 59.3961 24.8119C59.6321 25.3039 59.5281 26.2493 59.0801 27.2173Z" fill="url(#paint11_radial)"/>
</g>
</g>
</g>
</g>
</g>
</g>
</g>
<g id="g18726">
<g id="g18762">
<g id="g18760" opacity="0.5">
<g id="g18758" opacity="0.5">
<g id="g18756" opacity="0.5">
<g id="g18754" opacity="0.5">
<g id="g18752" opacity="0.5">
<path id="path18750" opacity="0.5" d="M58.4014 42.3159C58.7147 42.8026 58.2147 43.8453 57.2281 44.7093C56.6614 45.2053 56.0587 45.5306 55.5614 45.6519C55.5747 45.6719 55.5801 45.6986 55.5961 45.7173C55.9961 46.1733 57.1547 45.8133 58.1827 44.9133C59.2107 44.0119 59.7201 42.912 59.3201 42.4546C59.1401 42.2506 58.8041 42.2173 58.4014 42.3159" fill="url(#paint12_radial)"/>
</g>
</g>
</g>
</g>
</g>
</g>
</g>
<g id="g18764">
<g id="g18800">
<g id="g18798" opacity="0.5">
<g id="g18796" opacity="0.5">
<g id="g18794" opacity="0.5">
<g id="g18792" opacity="0.5">
<g id="g18790" opacity="0.5">
<path id="path18788" opacity="0.5" d="M63.116 27.5839C62.8907 27.4946 62.6467 27.4746 62.392 27.504C63.7187 28.3506 63.7707 31.5053 62.4574 34.8079C61.272 37.7893 59.3627 39.9159 57.8654 40.0879C57.9387 40.1346 58.0147 40.1786 58.096 40.2106C59.6454 40.8266 62.0254 38.4999 63.412 35.0133C64.7974 31.5266 64.6654 28.1999 63.116 27.5839" fill="url(#paint13_radial)"/>
</g>
</g>
</g>
</g>
</g>
</g>
</g>
<g id="g18802">
<g id="g18838">
<g id="g18836" opacity="0.5">
<g id="g18834" opacity="0.5">
<g id="g18832" opacity="0.5">
<g id="g18830" opacity="0.5">
<g id="g18828" opacity="0.5">
<path id="path18826" opacity="0.5" d="M22.028 22.5706C21.36 23.7626 21.2467 24.9693 21.776 25.2666C22.3067 25.564 23.2787 24.8386 23.9467 23.6466C24.616 22.4546 24.7294 21.248 24.1987 20.9506C23.6694 20.6533 22.6974 21.3786 22.028 22.5706ZM37.4907 8.25729C36.2334 8.79329 35.4067 9.68131 35.6454 10.24C35.8827 10.7986 37.0961 10.8173 38.3534 10.2813C39.6107 9.7453 40.4374 8.8573 40.1987 8.29863C39.96 7.73997 38.7481 7.72129 37.4907 8.25729ZM34.0987 10.268C35.3907 11.3226 34.5147 14.5333 32.1414 17.44C29.7694 20.348 26.7974 21.8493 25.5067 20.7946C24.2147 19.74 25.0907 16.528 27.4627 13.6213C29.8361 10.7146 32.8067 9.21331 34.0987 10.268" fill="url(#paint14_radial)"/>
</g>
</g>
</g>
</g>
</g>
</g>
</g>
<g id="g18840">
<g id="g18876">
<g id="g18874" opacity="0.5">
<g id="g18872" opacity="0.5">
<g id="g18870" opacity="0.5">
<g id="g18868" opacity="0.5">
<g id="g18866" opacity="0.5">
<path id="path18864" opacity="0.5" d="M22.592 23.584C23.1707 22.5533 23.9734 21.8746 24.524 21.9013C24.5547 21.4453 24.452 21.092 24.1987 20.9506C23.6694 20.6533 22.6974 21.3786 22.028 22.5706C21.36 23.7626 21.2467 24.9693 21.776 25.2666C21.848 25.308 21.9294 25.3253 22.0147 25.3293C22.0494 24.8306 22.2427 24.2066 22.592 23.584" fill="url(#paint15_radial)"/>
</g>
</g>
</g>
</g>
</g>
</g>
</g>
<g id="g18878">
<g id="g18914">
<g id="g18912" opacity="0.5">
<g id="g18910" opacity="0.5">
<g id="g18908" opacity="0.5">
<g id="g18906" opacity="0.5">
<g id="g18904" opacity="0.5">
<path id="path18902" opacity="0.5" d="M28.0267 14.636C30.3867 11.744 33.3374 10.2453 34.6401 11.268C34.5601 10.848 34.3854 10.5026 34.0988 10.268C32.8068 9.21329 29.8361 10.7146 27.4628 13.6213C25.0908 16.528 24.2148 19.7399 25.5068 20.7946C25.5134 20.7999 25.5214 20.8026 25.5281 20.808C25.2467 19.3373 26.1814 16.896 28.0267 14.636" fill="url(#paint16_radial)"/>
</g>
</g>
</g>
</g>
</g>
</g>
</g>
<g id="g18916">
<g id="g18952">
<g id="g18950" opacity="0.5">
<g id="g18948" opacity="0.5">
<g id="g18946" opacity="0.5">
<g id="g18944" opacity="0.5">
<g id="g18942" opacity="0.5">
<path id="path18940" opacity="0.5" d="M38.0534 9.27195C38.8307 8.93995 39.5894 8.82129 40.1134 8.91062C40.2321 8.68929 40.2747 8.47596 40.1987 8.29862C39.96 7.73996 38.7481 7.72128 37.4907 8.25728C36.2334 8.79328 35.4067 9.6813 35.6454 10.24C35.7361 10.4533 35.9707 10.5866 36.2934 10.6413C36.5494 10.1653 37.1961 9.63729 38.0534 9.27195Z" fill="url(#paint17_radial)"/>
</g>
</g>
</g>
</g>
</g>
</g>
</g>
<g id="g18954">
<g id="g18990">
<g id="g18988" opacity="0.5">
<g id="g18986" opacity="0.5">
<g id="g18984" opacity="0.5">
<g id="g18982" opacity="0.5">
<g id="g18980" opacity="0.5">
<path id="path18978" opacity="0.5" d="M26.3308 34.308C25.4548 33.2013 24.3267 32.6346 23.8107 33.0426C23.2947 33.4506 23.5854 34.6786 24.4614 35.7866C25.3374 36.8933 26.4654 37.46 26.9814 37.052C27.4974 36.644 27.2068 35.416 26.3308 34.308ZM36.1721 46.4466C34.9641 45.7186 33.7081 45.584 33.3681 46.148C33.0281 46.712 33.7334 47.7586 34.9427 48.488C36.1521 49.216 37.4067 49.3493 37.7467 48.7866C38.0867 48.2226 37.3814 47.1746 36.1721 46.4466ZM31.5854 45.636C30.6827 46.6013 28.2734 45.8133 26.2027 43.8773C24.1334 41.9413 23.1867 39.5893 24.0894 38.624C24.992 37.66 27.4014 38.4466 29.4721 40.3826C31.5414 42.3186 32.4881 44.6706 31.5854 45.636Z" fill="url(#paint18_radial)"/>
</g>
</g>
</g>
</g>
</g>
</g>
</g>
<g id="g18992">
<g id="g19028">
<g id="g19026" opacity="0.5">
<g id="g19024" opacity="0.5">
<g id="g19022" opacity="0.5">
<g id="g19020" opacity="0.5">
<g id="g19018" opacity="0.5">
<path id="path19016" opacity="0.5" d="M26.9814 37.052C27.1467 36.9213 27.2214 36.7 27.2281 36.4306C26.6467 36.4533 25.7947 35.924 25.0987 35.0426C24.5041 34.2906 24.1881 33.4893 24.2014 32.92C24.0521 32.9253 23.9161 32.9586 23.8107 33.0426C23.2947 33.4506 23.5854 34.6786 24.4614 35.7866C25.3374 36.8933 26.4654 37.46 26.9814 37.052Z" fill="url(#paint19_radial)"/>
</g>
</g>
</g>
</g>
</g>
</g>
</g>
<g id="g19030">
<g id="g19066">
<g id="g19064" opacity="0.5">
<g id="g19062" opacity="0.5">
<g id="g19060" opacity="0.5">
<g id="g19058" opacity="0.5">
<g id="g19056" opacity="0.5">
<path id="path19054" opacity="0.5" d="M35.58 47.744C34.6294 47.172 34 46.4053 33.9347 45.828C33.6787 45.8706 33.4747 45.972 33.368 46.148C33.028 46.712 33.7334 47.7586 34.9427 48.488C36.152 49.216 37.4067 49.3493 37.7467 48.7866C37.82 48.6653 37.836 48.52 37.8174 48.3626C37.2547 48.456 36.4107 48.244 35.58 47.744" fill="url(#paint20_radial)"/>
</g>
</g>
</g>
</g>
</g>
</g>
</g>
<g id="g19068">
<g id="g19104">
<g id="g19102" opacity="0.5">
<g id="g19100" opacity="0.5">
<g id="g19098" opacity="0.5">
<g id="g19096" opacity="0.5">
<g id="g19094" opacity="0.5">
<path id="path19092" opacity="0.5" d="M26.8401 43.1333C25.0588 41.468 24.1174 39.4986 24.4628 38.3653C24.3214 38.4306 24.1934 38.5133 24.0894 38.6239C23.1867 39.5893 24.1334 41.9413 26.2028 43.8773C28.2734 45.8133 30.6828 46.6013 31.5854 45.6359C31.7108 45.5013 31.7934 45.3346 31.8481 45.1519C30.7641 45.6546 28.6721 44.8466 26.8401 43.1333" fill="url(#paint21_radial)"/>
</g>
</g>
</g>
</g>
</g>
</g>
</g>
<g id="g19106">
<g id="g19148">
<g id="g19146" opacity="0.449997">
<g id="g19132" opacity="0.449997">
<g id="g19130" opacity="0.449997">
<g id="g19128" opacity="0.449997">
<g id="g19126" opacity="0.449997">
<path id="path19124" opacity="0.449997" d="M33.9874 15.344C35.2168 16.4266 34.6554 19.072 32.7341 21.2546C30.8128 23.436 28.2594 24.328 27.0301 23.2466C25.8008 22.164 26.3621 19.5186 28.2834 17.336C30.2048 15.1533 32.7581 14.2613 33.9874 15.344Z" fill="#F4A400"/>
</g>
</g>
</g>
</g>
<g id="g19144" opacity="0.449997">
<g id="g19142" opacity="0.449997">
<g id="g19140" opacity="0.449997">
<g id="g19138" opacity="0.449997">
<path id="path19136" opacity="0.449997" d="M40.5273 11.1253C40.9766 11.9773 40.1166 13.3146 38.6046 14.1133C37.0926 14.9133 35.5019 14.8706 35.0513 14.0186C34.6019 13.1666 35.4633 11.8293 36.9753 11.0306C38.4873 10.2306 40.0779 10.2733 40.5273 11.1253Z" fill="#F4A400"/>
</g>
</g>
</g>
</g>
</g>
</g>
</g>
<g id="g19150">
<path id="path19152" d="M83.2812 7.49637C81.2412 3.58703 70.6132 4.81103 56.6918 9.8737C57.4652 10.423 58.1838 11.0857 58.8518 11.7924C67.7345 9.10037 74.2185 8.77637 75.6318 11.487C78.0398 16.1044 64.8518 27.7457 46.1758 37.4884C27.4985 47.231 10.4052 51.387 7.99716 46.7697C6.46916 43.8417 11.2198 38.0884 19.6598 31.7857C19.4065 30.9044 19.2678 30.0097 19.2452 29.1124C6.07449 38.0737 -1.78684 46.6684 0.347828 50.7604C3.30116 56.4217 24.2612 51.327 47.1625 39.379C70.0638 27.4324 86.2345 13.1577 83.2812 7.49637Z" fill="#F4A400"/>
</g>
<g id="g19154">
<g id="g19168">
<g id="g19166" opacity="0.539993">
<g id="g19164" opacity="0.539993">
<path id="path19162" opacity="0.539993" d="M60.7213 9.32768C60.6586 9.05168 60.6693 8.76902 60.7346 8.48235C59.4226 8.90769 58.0746 9.37168 56.6919 9.87435C57.4653 10.4237 58.1826 11.085 58.8519 11.7917C67.7346 9.10102 74.2173 8.77702 75.6319 11.4864C78.0399 16.1037 64.8519 27.745 46.1759 37.489C27.4986 47.2317 10.4053 51.3864 7.99726 46.7704C6.46926 43.8424 11.2199 38.0877 19.6599 31.7864C19.4053 30.9037 19.2679 30.0104 19.2439 29.113C11.9919 34.0477 6.35459 38.869 3.10526 42.8904C7.01326 39.265 13.7839 33.1877 13.9853 34.3957C14.2693 36.0944 -1.16807 45.2997 8.74526 49.265C18.6586 53.2303 44.4346 39.3517 54.3479 33.829C64.2613 28.305 76.2999 18.533 78.8493 11.7357C81.3986 4.93702 61.4293 12.4437 60.7213 9.32768Z" fill="#F4A400"/>
</g>
</g>
</g>
</g>
<g id="g19170">
<g id="g19212">
<g id="g19210">
<g id="g19196">
<g id="g19194">
<g id="g19192" opacity="0.539993">
<g id="g19190" opacity="0.539993">
<path id="path19188" opacity="0.539993" d="M8.67261 50.4744C8.64328 50.5784 8.22594 50.561 7.61261 50.6304C6.99528 50.681 6.17928 50.8504 5.23928 50.825C4.31394 50.7984 3.30461 50.4664 2.70328 49.829C2.40461 49.521 2.23394 49.185 2.14194 48.9504C2.04994 48.7117 2.02728 48.569 2.02728 48.569C2.02728 48.569 2.00061 48.4264 1.99528 48.1824C1.98994 47.9384 2.02461 47.601 2.12194 47.2357C2.31128 46.5024 2.78061 45.6957 3.25794 44.9957C4.21528 43.545 5.40594 42.293 5.57128 42.4237C5.73261 42.549 4.86594 43.9984 4.18461 45.5157C3.82328 46.281 3.53794 47.009 3.47394 47.5277C3.40461 48.0437 3.50194 48.293 3.50194 48.293C3.50194 48.293 3.49794 48.573 3.73928 48.9117C3.96994 49.257 4.60728 49.6277 5.36061 49.7704C6.10594 49.9184 6.98728 49.9197 7.63794 50.045C8.29661 50.1584 8.70194 50.3797 8.67261 50.4744Z" fill="#F4A400"/>
</g>
</g>
</g>
</g>
<g id="g19208">
<g id="g19206">
<g id="g19204" opacity="0.539993">
<g id="g19202" opacity="0.539993">
<path id="path19200" opacity="0.539993" d="M76.9421 18.3905C76.7941 18.2478 78.5674 16.1292 80.0048 13.8065C80.7434 12.6438 81.4101 11.4852 81.5808 10.6092C81.6808 10.1718 81.6781 9.82517 81.6581 9.5785C81.6368 9.33584 81.6034 9.20384 81.6034 9.20384C81.6034 9.20384 81.5914 9.06784 81.5301 8.84384C81.4674 8.62384 81.3501 8.31317 81.1008 8.0385C80.8554 7.76117 80.4354 7.5025 79.8794 7.3265C79.3274 7.1505 78.6568 7.02784 78.0048 6.94917C76.6874 6.79317 75.3381 6.8745 74.3354 7.03717C73.3314 7.1945 72.6621 7.38384 72.6208 7.28117C72.5834 7.19184 73.1848 6.8145 74.1954 6.46917C75.2021 6.11984 76.6274 5.86117 78.0741 5.88917C78.7994 5.90784 79.5074 5.96784 80.2088 6.1265C80.9034 6.2825 81.5941 6.59584 82.0781 7.06117C82.5688 7.52517 82.8008 8.03984 82.9261 8.3865C83.0501 8.73984 83.0821 8.94784 83.0821 8.94784C83.0821 8.94784 83.1194 9.15584 83.1274 9.51717C83.1341 9.87317 83.0928 10.4012 82.9154 10.9665C82.5834 12.1252 81.7221 13.3252 80.8741 14.4158C79.1634 16.6532 77.0901 18.5398 76.9421 18.3905Z" fill="#F4A400"/>
</g>
</g>
</g>
</g>
</g>
</g>
</g>
</g>
</g>
</g>
<defs>
<radialGradient id="paint0_radial" cx="0" cy="0" r="1" gradientUnits="userSpaceOnUse" gradientTransform="translate(42.9498 28.0036) rotate(59.8135) scale(29.1017)">
<stop stop-color="#F4A400"/>
<stop offset="0.0518519" stop-color="#F4A400"/>
<stop offset="0.809505" stop-color="#F4A400"/>
<stop offset="1" stop-color="#ED29B9"/>
</radialGradient>
<radialGradient id="paint1_radial" cx="0" cy="0" r="1" gradientUnits="userSpaceOnUse" gradientTransform="translate(33.5179 11.9862) rotate(59.8135) scale(51.9003)">
<stop stop-color="#FF0077"/>
<stop offset="0.384182" stop-color="#FF0077"/>
<stop offset="0.898496" stop-color="#8244B0"/>
<stop offset="0.942285" stop-color="#8244B0"/>
<stop offset="1" stop-color="#8244B0"/>
</radialGradient>
<radialGradient id="paint2_radial" cx="0" cy="0" r="1" gradientUnits="userSpaceOnUse" gradientTransform="translate(33.5219 16.3684) rotate(59.8135) scale(48.5869)">
<stop stop-color="#FF0077"/>
<stop offset="0.384182" stop-color="#FF0077"/>
<stop offset="0.898496" stop-color="#8244B0"/>
<stop offset="0.942285" stop-color="#8244B0"/>
<stop offset="1" stop-color="#8244B0"/>
</radialGradient>
<radialGradient id="paint3_radial" cx="0" cy="0" r="1" gradientUnits="userSpaceOnUse" gradientTransform="translate(34.9236 23.4001) rotate(59.8135) scale(40.8265)">
<stop stop-color="#FF0077"/>
<stop offset="0.384182" stop-color="#FF0077"/>
<stop offset="0.898496" stop-color="#8244B0"/>
<stop offset="0.942285" stop-color="#8244B0"/>
<stop offset="1" stop-color="#8244B0"/>
</radialGradient>
<radialGradient id="paint4_radial" cx="0" cy="0" r="1" gradientUnits="userSpaceOnUse" gradientTransform="translate(36.5851 -11.0097) rotate(45) scale(32.0062)">
<stop stop-color="#FF0077"/>
<stop offset="0.384182" stop-color="#FF0077"/>
<stop offset="0.898496" stop-color="#8244B0"/>
<stop offset="0.942285" stop-color="#8244B0"/>
<stop offset="1" stop-color="#8244B0"/>
</radialGradient>
<radialGradient id="paint5_radial" cx="0" cy="0" r="1" gradientUnits="userSpaceOnUse" gradientTransform="translate(38.6846 10.0767) rotate(44.9999) scale(10.7616)">
<stop stop-color="#FF0077"/>
<stop offset="0.384182" stop-color="#FF0077"/>
<stop offset="0.898496" stop-color="#8244B0"/>
<stop offset="0.942285" stop-color="#8244B0"/>
<stop offset="1" stop-color="#8244B0"/>
</radialGradient>
<radialGradient id="paint6_radial" cx="0" cy="0" r="1" gradientUnits="userSpaceOnUse" gradientTransform="translate(43.2794 -4.61649) rotate(45) scale(22.3057)">
<stop stop-color="#FF0077"/>
<stop offset="0.384182" stop-color="#FF0077"/>
<stop offset="0.898496" stop-color="#8244B0"/>
<stop offset="0.942285" stop-color="#8244B0"/>
<stop offset="1" stop-color="#8244B0"/>
</radialGradient>
<radialGradient id="paint7_radial" cx="0" cy="0" r="1" gradientUnits="userSpaceOnUse" gradientTransform="translate(39.387 25.4879) rotate(62.3384) scale(14.5344 23.5207)">
<stop stop-color="#FF0077"/>
<stop offset="0.384182" stop-color="#FF0077"/>
<stop offset="0.898496" stop-color="#8244B0"/>
<stop offset="0.942285" stop-color="#8244B0"/>
<stop offset="1" stop-color="#8244B0"/>
</radialGradient>
<radialGradient id="paint8_radial" cx="0" cy="0" r="1" gradientUnits="userSpaceOnUse" gradientTransform="translate(38.1566 32.8033) rotate(45.0001) scale(15.274)">
<stop stop-color="#FF0077"/>
<stop offset="0.384182" stop-color="#FF0077"/>
<stop offset="0.898496" stop-color="#8244B0"/>
<stop offset="0.942285" stop-color="#8244B0"/>
<stop offset="1" stop-color="#8244B0"/>
</radialGradient>
<radialGradient id="paint9_radial" cx="0" cy="0" r="1" gradientUnits="userSpaceOnUse" gradientTransform="translate(54.0003 -27.9579) rotate(45) scale(60.1714)">
<stop stop-color="#FF0077"/>
<stop offset="0.384182" stop-color="#FF0077"/>
<stop offset="0.898496" stop-color="#8244B0"/>
<stop offset="0.942285" stop-color="#8244B0"/>
<stop offset="1" stop-color="#8244B0"/>
</radialGradient>
<radialGradient id="paint10_radial" cx="0" cy="0" r="1" gradientUnits="userSpaceOnUse" gradientTransform="translate(61.1275 7.301) rotate(44.9996) scale(15.3129)">
<stop stop-color="#FF0077"/>
<stop offset="0.384182" stop-color="#FF0077"/>
<stop offset="0.898496" stop-color="#8244B0"/>
<stop offset="0.942285" stop-color="#8244B0"/>
<stop offset="1" stop-color="#8244B0"/>
</radialGradient>
<radialGradient id="paint11_radial" cx="0" cy="0" r="1" gradientUnits="userSpaceOnUse" gradientTransform="translate(57.2688 16.5215) rotate(45.0002) scale(10.5908)">
<stop stop-color="#FF0077"/>
<stop offset="0.384182" stop-color="#FF0077"/>
<stop offset="0.898496" stop-color="#8244B0"/>
<stop offset="0.942285" stop-color="#8244B0"/>
<stop offset="1" stop-color="#8244B0"/>
</radialGradient>
<radialGradient id="paint12_radial" cx="0" cy="0" r="1" gradientUnits="userSpaceOnUse" gradientTransform="translate(54.923 35.7717) rotate(44.9999) scale(8.96179)">
<stop stop-color="#FF0077"/>
<stop offset="0.384182" stop-color="#FF0077"/>
<stop offset="0.898496" stop-color="#8244B0"/>
<stop offset="0.942285" stop-color="#8244B0"/>
<stop offset="1" stop-color="#8244B0"/>
</radialGradient>
<radialGradient id="paint13_radial" cx="0" cy="0" r="1" gradientUnits="userSpaceOnUse" gradientTransform="translate(56.7993 4.71374) rotate(44.9999) scale(29.3548)">
<stop stop-color="#FF0077"/>
<stop offset="0.384182" stop-color="#FF0077"/>
<stop offset="0.898496" stop-color="#8244B0"/>
<stop offset="0.942285" stop-color="#8244B0"/>
<stop offset="1" stop-color="#8244B0"/>
</radialGradient>
<radialGradient id="paint14_radial" cx="0" cy="0" r="1" gradientUnits="userSpaceOnUse" gradientTransform="translate(18.3641 -23.1677) rotate(45) scale(42.9172)">
<stop stop-color="#FF0077"/>
<stop offset="0.384182" stop-color="#FF0077"/>
<stop offset="0.898496" stop-color="#8244B0"/>
<stop offset="0.942285" stop-color="#8244B0"/>
<stop offset="1" stop-color="#8244B0"/>
</radialGradient>
<radialGradient id="paint15_radial" cx="0" cy="0" r="1" gradientUnits="userSpaceOnUse" gradientTransform="translate(20.9371 12.9837) rotate(44.9999) scale(10.3714)">
<stop stop-color="#FF0077"/>
<stop offset="0.384182" stop-color="#FF0077"/>
<stop offset="0.898496" stop-color="#8244B0"/>
<stop offset="0.942285" stop-color="#8244B0"/>
<stop offset="1" stop-color="#8244B0"/>
</radialGradient>
<radialGradient id="paint16_radial" cx="0" cy="0" r="1" gradientUnits="userSpaceOnUse" gradientTransform="translate(23.3161 -9.39697) rotate(45) scale(26.02)">
<stop stop-color="#FF0077"/>
<stop offset="0.384182" stop-color="#FF0077"/>
<stop offset="0.898496" stop-color="#8244B0"/>
<stop offset="0.942285" stop-color="#8244B0"/>
<stop offset="1" stop-color="#8244B0"/>
</radialGradient>
<radialGradient id="paint17_radial" cx="0" cy="0" r="1" gradientUnits="userSpaceOnUse" gradientTransform="translate(34.8453 2.93704) rotate(45.0003) scale(7.58522)">
<stop stop-color="#FF0077"/>
<stop offset="0.384182" stop-color="#FF0077"/>
<stop offset="0.898496" stop-color="#8244B0"/>
<stop offset="0.942285" stop-color="#8244B0"/>
<stop offset="1" stop-color="#8244B0"/>
</radialGradient>
<radialGradient id="paint18_radial" cx="0" cy="0" r="1" gradientUnits="userSpaceOnUse" gradientTransform="translate(21.2172 4.0804) rotate(45) scale(38.7343)">
<stop stop-color="#FF0077"/>
<stop offset="0.384182" stop-color="#FF0077"/>
<stop offset="0.898496" stop-color="#8244B0"/>
<stop offset="0.942285" stop-color="#8244B0"/>
<stop offset="1" stop-color="#8244B0"/>
</radialGradient>
<radialGradient id="paint19_radial" cx="0" cy="0" r="1" gradientUnits="userSpaceOnUse" gradientTransform="translate(22.954 25.3424) rotate(45.0001) scale(10.1553)">
<stop stop-color="#FF0077"/>
<stop offset="0.384182" stop-color="#FF0077"/>
<stop offset="0.898496" stop-color="#8244B0"/>
<stop offset="0.942285" stop-color="#8244B0"/>
<stop offset="1" stop-color="#8244B0"/>
</radialGradient>
<radialGradient id="paint20_radial" cx="0" cy="0" r="1" gradientUnits="userSpaceOnUse" gradientTransform="translate(32.5391 39.9524) rotate(44.9999) scale(8.54618)">
<stop stop-color="#FF0077"/>
<stop offset="0.384182" stop-color="#FF0077"/>
<stop offset="0.898496" stop-color="#8244B0"/>
<stop offset="0.942285" stop-color="#8244B0"/>
<stop offset="1" stop-color="#8244B0"/>
</radialGradient>
<radialGradient id="paint21_radial" cx="0" cy="0" r="1" gradientUnits="userSpaceOnUse" gradientTransform="translate(22.4208 24.7151) rotate(45) scale(18.8129)">
<stop stop-color="#FF0077"/>
<stop offset="0.384182" stop-color="#FF0077"/>
<stop offset="0.898496" stop-color="#8244B0"/>
<stop offset="0.942285" stop-color="#8244B0"/>
<stop offset="1" stop-color="#8244B0"/>
</radialGradient>
</defs>
</svg>
