<svg width="128" height="128" viewBox="0 0 128 128" fill="none" xmlns="http://www.w3.org/2000/svg">
<g id="planet6">
<g id="g16930">
<g id="g16928">
<g id="g16750">
<g id="g16748">
<g id="g16746">
<g id="g16744">
<g id="g16742">
<g id="g16740">
<g id="g16738">
<g id="g16736">
<path id="path16734" d="M63.9976 127.611C28.759 127.718 0.105632 99.2363 0.000298635 63.9976C-0.106368 28.759 28.375 0.105636 63.6136 0.000302609C98.8523 -0.106364 127.506 28.375 127.611 63.6137C127.718 98.8523 99.2363 127.506 63.9976 127.611" fill="url(#paint0_radial)"/>
</g>
</g>
</g>
</g>
</g>
</g>
</g>
</g>
<g id="g16760">
<g id="g16758">
<g id="g16756">
<g id="g16754">
<path id="path16752" d="M63.9697 118.446C33.7937 118.536 9.25632 94.147 9.16566 63.9697C9.07499 33.7937 33.4643 9.25631 63.6417 9.16565C93.8177 9.07498 118.355 33.4643 118.446 63.6417C118.536 93.8177 94.147 118.355 63.9697 118.446" fill="url(#paint1_radial)"/>
</g>
</g>
</g>
</g>
<g id="g16778">
<g id="g16776">
<g id="g16774">
<g id="g16772">
<g id="g16770">
<g id="g16768">
<g id="g16766">
<path id="path16764" d="M63.9697 118.446C33.7937 118.536 9.25632 94.147 9.16566 63.9697C9.07499 33.7937 33.4643 9.25631 63.6417 9.16565C93.8177 9.07498 118.355 33.4643 118.446 63.6417C118.536 93.8177 94.147 118.355 63.9697 118.446" fill="url(#paint2_radial)"/>
</g>
</g>
</g>
</g>
</g>
</g>
</g>
<g id="g16788">
<g id="g16786">
<g id="g16784">
<g id="g16782">
<path id="path16780" d="M42.8856 86.9923C43.6336 87.435 44.4709 87.8483 45.3309 87.7337C47.0163 87.5123 47.7936 85.4844 47.8109 83.7857C47.8509 79.755 45.6309 76.0657 43.1989 72.851C40.7683 69.6363 37.9989 66.5564 36.6216 62.7684C35.2456 58.9804 35.6616 54.1657 38.8363 51.6817C42.1656 49.075 47.0669 49.9377 50.9003 48.155C51.4149 47.915 51.9283 47.6097 52.2283 47.1283C52.9589 45.9577 52.1309 44.4683 51.3483 43.3323C46.8989 36.8643 43.1909 29.6457 42.2989 21.8457C41.9816 19.0683 42.0789 16.207 42.5949 13.4404C32.3603 17.7564 23.7283 25.103 17.7963 34.3484C18.4123 34.495 19.0203 34.679 19.6029 34.951C25.8003 37.8403 26.8523 46.0163 27.3869 52.8323C27.8949 59.3203 28.7203 65.8603 31.0349 71.943C33.3483 78.0257 37.2883 83.6737 42.8856 86.9923" fill="url(#paint3_radial)"/>
</g>
</g>
</g>
</g>
<g id="g16798">
<g id="g16796">
<g id="g16794">
<g id="g16792">
<path id="path16790" d="M57.3949 118.058C57.2869 114.375 57.0136 110.76 55.0416 107.734C51.7616 102.699 44.8789 101.298 38.9256 102.106C37.3669 102.318 35.7096 102.635 34.2789 101.983C33.4003 101.584 32.7163 100.86 32.0856 100.13C26.1229 93.227 22.9816 84.395 18.3909 76.5137C16.3829 73.067 13.3576 69.423 9.45361 69.4136C12.0483 94.8563 32.0909 115.099 57.3949 118.058" fill="url(#paint4_radial)"/>
</g>
</g>
</g>
</g>
<g id="g16808">
<g id="g16806">
<g id="g16804">
<g id="g16802">
<path id="path16800" d="M63.6416 9.16565C63.3243 9.16699 63.0123 9.18568 62.6963 9.19235C62.0323 10.0843 61.495 11.0697 61.1363 12.1283C60.319 14.535 60.2696 17.3083 58.6523 19.267C57.7683 20.3363 56.5043 21.0364 55.6096 22.0964C53.3843 24.735 54.1203 28.9377 56.2963 31.6177C58.4723 34.2977 61.7163 35.8323 64.823 37.3363C67.931 38.839 71.1403 40.503 73.127 43.3257C74.7723 45.6604 75.411 48.679 74.8536 51.4803C74.3603 53.9603 72.975 56.343 73.3083 58.851C73.7416 62.1163 77.1403 64.383 80.4323 64.4857C83.7256 64.5883 86.843 63.0057 89.5363 61.1097C90.867 60.175 92.163 59.1377 93.6936 58.5883C97.8256 57.1043 102.351 59.5643 105.522 62.6003C108.694 65.6377 111.312 69.3976 115.186 71.4643C115.992 71.895 116.876 72.2217 117.775 72.343C118.22 69.507 118.455 66.603 118.446 63.6417C118.355 33.4644 93.8176 9.07499 63.6416 9.16565" fill="url(#paint5_radial)"/>
</g>
</g>
</g>
</g>
<g id="g16818">
<g id="g16816">
<g id="g16814">
<g id="g16812">
<path id="path16810" d="M104.895 86.2217C101.616 87.2164 98.7763 89.271 95.687 90.7537C92.5976 92.235 88.895 93.1244 85.7896 91.6764C81.9883 89.9044 80.475 85.4324 78.715 81.6244C77.1363 78.2044 75.075 75.0084 72.611 72.159C69.8816 69.0017 66.0323 66.0817 61.9216 66.803C57.619 67.559 54.967 71.9844 53.8616 76.2097C53.1656 78.871 52.875 81.807 54.0723 84.283C56.3403 88.975 62.955 90.2577 65.235 94.9443C67.0656 98.7083 65.423 103.132 65.099 107.306C64.8003 111.134 65.7283 114.916 67.5003 118.31C88.0803 116.934 105.515 104.175 113.604 86.2857C110.775 85.4417 107.724 85.363 104.895 86.2217" fill="url(#paint6_radial)"/>
</g>
</g>
</g>
</g>
<g id="g16836">
<g id="g16834">
<g id="g16832" opacity="0.25">
<g id="g16830" opacity="0.25">
<g id="g16828" opacity="0.25">
<g id="g16826" opacity="0.25">
<g id="g16824" opacity="0.25">
<path id="path16822" opacity="0.25" d="M105.386 99.1257C101.15 100.194 96.719 100.775 92.1523 100.79C61.9763 100.88 37.439 76.4897 37.3483 46.3137C37.307 32.6617 42.2883 20.175 50.5363 10.5724C26.775 16.563 9.21632 38.103 9.29365 63.7137C9.38432 93.891 33.9217 118.28 64.0977 118.19C80.623 118.139 95.4017 110.748 105.386 99.1257" fill="url(#paint7_radial)"/>
</g>
</g>
</g>
</g>
</g>
</g>
</g>
<g id="g16854">
<g id="g16852">
<g id="g16850" opacity="0.339996">
<g id="g16848" opacity="0.339996">
<g id="g16846" opacity="0.339996">
<g id="g16844" opacity="0.339996">
<g id="g16842" opacity="0.339996">
<path id="path16840" opacity="0.339996" d="M86.819 108.952C81.579 110.802 75.9483 111.822 70.0763 111.839C41.9963 111.923 19.1643 89.2283 19.0803 61.1483C19.0203 41.5017 30.119 24.4404 46.403 15.9257C26.6003 22.923 12.4336 41.8243 12.5003 64.0163C12.5843 92.0977 35.4163 114.792 63.4976 114.708C71.915 114.683 79.8403 112.599 86.819 108.952" fill="url(#paint8_radial)"/>
</g>
</g>
</g>
</g>
</g>
</g>
</g>
<g id="g16872">
<g id="g16870">
<g id="g16868" opacity="0.449997">
<g id="g16866" opacity="0.449997">
<g id="g16864" opacity="0.449997">
<g id="g16862" opacity="0.449997">
<g id="g16860" opacity="0.449997">
<path id="path16858" opacity="0.449997" d="M58.8029 12.5736C88.9803 12.483 113.518 36.8723 113.608 67.0497C113.66 84.539 105.48 100.122 92.7256 110.162C108.216 100.476 118.504 83.255 118.446 63.6417C118.355 33.4643 93.8176 9.07498 63.6416 9.16565C50.9536 9.20431 39.3003 13.575 30.0469 20.8577C38.3909 15.6417 48.2403 12.6056 58.8029 12.5736" fill="url(#paint9_radial)"/>
</g>
</g>
</g>
</g>
</g>
</g>
</g>
<g id="g16890">
<g id="g16888">
<g id="g16886">
<g id="g16884">
<g id="g16882">
<g id="g16880">
<g id="g16878">
<path id="path16876" d="M52.6683 17.2683C59.1483 15.619 68.9789 18.1443 73.7016 19.435C84.8323 22.479 94.8376 28.8283 101.798 38.1043C119.994 62.3576 106.859 90.387 98.7776 97.8456C90.6976 105.304 81.9296 96.5883 82.1016 83.155C82.2749 69.7203 82.4483 56.5003 75.6016 48.8443C68.7563 41.1883 51.4856 41.8803 47.8309 31.6563C46.6203 28.2723 45.4523 23.379 47.8469 20.183C48.9603 18.699 50.6523 17.7817 52.6683 17.2683" fill="url(#paint10_radial)"/>
</g>
</g>
</g>
</g>
</g>
</g>
</g>
<g id="g16908">
<g id="g16906">
<g id="g16904" opacity="0.449997">
<g id="g16902" opacity="0.449997">
<g id="g16900" opacity="0.449997">
<g id="g16898" opacity="0.449997">
<g id="g16896" opacity="0.449997">
<path id="path16894" opacity="0.449997" d="M94.6256 41.4137C92.031 44.379 85.6576 43.0483 80.391 38.439C75.1256 33.831 72.9603 27.691 75.555 24.7257C78.151 21.759 84.5243 23.091 89.7896 27.699C95.0563 32.307 97.2216 38.447 94.6256 41.4137Z" fill="url(#paint11_radial)"/>
</g>
</g>
</g>
</g>
</g>
</g>
</g>
<g id="g16926">
<g id="g16924">
<g id="g16922" opacity="0.449997">
<g id="g16920" opacity="0.449997">
<g id="g16918" opacity="0.449997">
<g id="g16916" opacity="0.449997">
<g id="g16914" opacity="0.449997">
<path id="path16912" opacity="0.449997" d="M104.827 57.123C102.78 58.2124 99.5537 56.151 97.6203 52.5164C95.6857 48.883 95.7777 45.055 97.823 43.9657C99.8697 42.8764 103.096 44.9391 105.031 48.5724C106.964 52.2057 106.874 56.0337 104.827 57.123Z" fill="url(#paint12_radial)"/>
</g>
</g>
</g>
</g>
</g>
</g>
</g>
</g>
</g>
</g>
<defs>
<radialGradient id="paint0_radial" cx="0" cy="0" r="1" gradientUnits="userSpaceOnUse" gradientTransform="translate(64.1229 63.8058) rotate(43.8656) scale(62.7719)">
<stop stop-color="#F4A400"/>
<stop offset="0.0518519" stop-color="#F4A400"/>
<stop offset="0.809505" stop-color="#F4A400"/>
<stop offset="1" stop-color="#ED29B9"/>
</radialGradient>
<radialGradient id="paint1_radial" cx="0" cy="0" r="1" gradientUnits="userSpaceOnUse" gradientTransform="translate(116.371 55.1757) rotate(151.952) scale(160.236)">
<stop stop-color="#F4A400"/>
<stop offset="0.0518519" stop-color="#F4A400"/>
<stop offset="1" stop-color="#ED29B9"/>
</radialGradient>
<radialGradient id="paint2_radial" cx="0" cy="0" r="1" gradientUnits="userSpaceOnUse" gradientTransform="translate(116.371 55.1757) rotate(151.952) scale(160.236)">
<stop stop-color="#F4A400"/>
<stop offset="0.0518519" stop-color="#F4A400"/>
<stop offset="1" stop-color="#ED29B9"/>
</radialGradient>
<radialGradient id="paint3_radial" cx="0" cy="0" r="1" gradientUnits="userSpaceOnUse" gradientTransform="translate(101.211 41.8745) rotate(144.649) scale(84.251)">
<stop stop-color="#FF0077"/>
<stop offset="0.384182" stop-color="#FF0077"/>
<stop offset="0.898496" stop-color="#8244B0"/>
<stop offset="0.942285" stop-color="#8244B0"/>
<stop offset="1" stop-color="#8244B0"/>
</radialGradient>
<radialGradient id="paint4_radial" cx="0" cy="0" r="1" gradientUnits="userSpaceOnUse" gradientTransform="translate(101.211 41.8744) rotate(144.649) scale(84.3162)">
<stop stop-color="#FF0077"/>
<stop offset="0.384182" stop-color="#FF0077"/>
<stop offset="0.898496" stop-color="#8244B0"/>
<stop offset="0.942285" stop-color="#8244B0"/>
<stop offset="1" stop-color="#8244B0"/>
</radialGradient>
<radialGradient id="paint5_radial" cx="0" cy="0" r="1" gradientUnits="userSpaceOnUse" gradientTransform="translate(101.211 41.8745) rotate(144.649) scale(84.2511)">
<stop stop-color="#FF0077"/>
<stop offset="0.384182" stop-color="#FF0077"/>
<stop offset="0.898496" stop-color="#8244B0"/>
<stop offset="0.942285" stop-color="#8244B0"/>
<stop offset="1" stop-color="#8244B0"/>
</radialGradient>
<radialGradient id="paint6_radial" cx="0" cy="0" r="1" gradientUnits="userSpaceOnUse" gradientTransform="translate(101.211 41.8745) rotate(144.649) scale(84.251)">
<stop stop-color="#FF0077"/>
<stop offset="0.384182" stop-color="#FF0077"/>
<stop offset="0.898496" stop-color="#8244B0"/>
<stop offset="0.942285" stop-color="#8244B0"/>
<stop offset="1" stop-color="#8244B0"/>
</radialGradient>
<radialGradient id="paint7_radial" cx="0" cy="0" r="1" gradientUnits="userSpaceOnUse" gradientTransform="translate(103.456 55.8963) rotate(151.952) scale(145.337)">
<stop stop-color="#F4A400"/>
<stop offset="0.0518519" stop-color="#F4A400"/>
<stop offset="1" stop-color="#ED29B9"/>
</radialGradient>
<radialGradient id="paint8_radial" cx="0" cy="0" r="1" gradientUnits="userSpaceOnUse" gradientTransform="translate(85.2729 57.5638) rotate(151.952) scale(119.125)">
<stop stop-color="#F4A400"/>
<stop offset="0.0518519" stop-color="#F4A400"/>
<stop offset="1" stop-color="#ED29B9"/>
</radialGradient>
<radialGradient id="paint9_radial" cx="0" cy="0" r="1" gradientUnits="userSpaceOnUse" gradientTransform="translate(74.2467 59.6636) scale(47.4533)">
<stop stop-color="#F4A400"/>
<stop offset="0.0518519" stop-color="#F4A400"/>
<stop offset="1" stop-color="#ED29B9"/>
</radialGradient>
<radialGradient id="paint10_radial" cx="0" cy="0" r="1" gradientUnits="userSpaceOnUse" gradientTransform="translate(109.723 52.0432) rotate(151.952) scale(102.573)">
<stop stop-color="#F4A400"/>
<stop offset="0.0518519" stop-color="#F4A400"/>
<stop offset="1" stop-color="#ED29B9"/>
</radialGradient>
<radialGradient id="paint11_radial" cx="0" cy="0" r="1" gradientUnits="userSpaceOnUse" gradientTransform="translate(85.0908 33.0692) scale(10.2847)">
<stop stop-color="#F4A400"/>
<stop offset="0.0518519" stop-color="#F4A400"/>
<stop offset="1" stop-color="#ED29B9"/>
</radialGradient>
<radialGradient id="paint12_radial" cx="0" cy="0" r="1" gradientUnits="userSpaceOnUse" gradientTransform="translate(101.325 50.5447) scale(6.04933)">
<stop stop-color="#F4A400"/>
<stop offset="0.0518519" stop-color="#F4A400"/>
<stop offset="1" stop-color="#ED29B9"/>
</radialGradient>
</defs>
</svg>
