<svg width="293" height="343" viewBox="0 0 293 343" fill="none" xmlns="http://www.w3.org/2000/svg">
<g id="rightback">
<g id="g14082">
<g id="g14118">
<g id="g14116">
<g id="g14114">
<g id="g14112">
<g id="g14110">
<g id="g14108">
<path id="path14106" d="M289.94 0.267804C289.94 0.267804 235.727 -5.98819 194.024 41.9705C152.322 89.9278 175.955 151.762 175.955 151.762C175.955 151.762 129.386 136.844 105.407 168.12C81.4269 199.397 100.194 233.801 100.194 233.801C100.194 233.801 34.5123 215.036 2.19226 274.461C-30.1264 333.888 305.579 377.676 305.579 377.676L355.622 294.27L289.94 0.267804Z" fill="url(#paint0_radial)"/>
</g>
</g>
</g>
</g>
</g>
</g>
</g>
<g id="Group 1">
<g id="g15906">
<g id="g15942">
<g id="g15940">
<g id="g15938">
<g id="g15936">
<g id="g15934">
<g id="g15932">
<path id="path15930" d="M277.857 6.70002C277.767 61.416 271.644 146.824 233.84 140.117C210.163 135.916 200.881 117.163 198 97.0893C200.237 79.7773 206.785 60.7427 221.779 43.5C242.125 20.1014 265.447 9.61069 284 5.00003C282.004 5.49603 279.953 6.06002 277.857 6.70002Z" fill="url(#paint1_radial)"/>
</g>
</g>
</g>
</g>
</g>
</g>
</g>
<g id="g15222">
<g id="g15258">
<g id="g15256">
<g id="g15254">
<g id="g15252">
<g id="g15250">
<g id="g15248">
<path id="path15246" d="M176.61 227.59C140.55 247.008 121.267 238.866 111.054 226.52C110.56 240.677 115.051 252.248 117.055 256.661C113.58 249.034 102.567 219.822 123.203 192.905C136.4 175.69 156.432 172.478 171.786 173.064C196.191 187.58 213.53 207.71 176.61 227.59" fill="url(#paint2_radial)"/>
</g>
</g>
</g>
</g>
</g>
</g>
</g>
<g id="g14956">
<g id="g14992">
<g id="g14990">
<g id="g14988">
<g id="g14986">
<g id="g14984">
<g id="g14982">
<path id="path14980" d="M128.435 299.277C104.347 314.889 66.8733 305.069 35.428 291.35C34.9466 292.038 34.472 292.739 34 293.454C54.4813 262.331 85.004 256.693 105.62 257.013C131.695 266.797 155.437 281.774 128.435 299.277Z" fill="url(#paint3_radial)"/>
</g>
</g>
</g>
</g>
</g>
</g>
</g>
</g>
</g>
<defs>
<radialGradient id="paint0_radial" cx="0" cy="0" r="1" gradientUnits="userSpaceOnUse" gradientTransform="translate(180.074 -2.99316) rotate(94.0567) scale(369.08)">
<stop stop-color="#FF0077"/>
<stop offset="0.384182" stop-color="#FF0077"/>
<stop offset="0.898496" stop-color="#8244B0"/>
<stop offset="0.942285" stop-color="#8244B0"/>
<stop offset="1" stop-color="#8244B0"/>
</radialGradient>
<radialGradient id="paint1_radial" cx="0" cy="0" r="1" gradientUnits="userSpaceOnUse" gradientTransform="translate(241.548 3.92613) rotate(94.0567) scale(125.628)">
<stop stop-color="#FF0077"/>
<stop offset="0.384182" stop-color="#FF0077"/>
<stop offset="0.898496" stop-color="#8244B0"/>
<stop offset="0.942285" stop-color="#8244B0"/>
<stop offset="1" stop-color="#8244B0"/>
</radialGradient>
<radialGradient id="paint2_radial" cx="0" cy="0" r="1" gradientUnits="userSpaceOnUse" gradientTransform="translate(155.01 172.337) rotate(94.0567) scale(83.3659)">
<stop stop-color="#FF0077"/>
<stop offset="0.384182" stop-color="#FF0077"/>
<stop offset="0.898496" stop-color="#8244B0"/>
<stop offset="0.942285" stop-color="#8244B0"/>
<stop offset="1" stop-color="#8244B0"/>
</radialGradient>
<radialGradient id="paint3_radial" cx="0" cy="0" r="1" gradientUnits="userSpaceOnUse" gradientTransform="translate(87.8573 256.602) rotate(94.0567) scale(64.7988)">
<stop stop-color="#FF0077"/>
<stop offset="0.384182" stop-color="#FF0077"/>
<stop offset="0.898496" stop-color="#8244B0"/>
<stop offset="0.942285" stop-color="#8244B0"/>
<stop offset="1" stop-color="#8244B0"/>
</radialGradient>
</defs>
</svg>
